<svg width="80" height="80" viewBox="0 0 80 80" fill="none" xmlns="http://www.w3.org/2000/svg">
<path d="M40.1238 21.1016C56.594 8.31518 48.141 0 48.141 0C49.399 13.2185 34.532 16.3396 30.5468 25.423C27.8275 31.6213 32.409 37.0483 40.1183 43.8885C39.4368 42.3735 38.3855 40.9015 37.3215 39.4112C33.6918 34.3283 29.9108 29.033 40.1238 21.1016Z" fill="#E76F00"/>
<path d="M42.7538 46.6925C42.7538 46.6925 47.7088 42.6948 43.7848 38.252C30.4828 23.1797 58.3333 16.3396 58.3333 16.3396C41.3293 24.5313 43.8678 29.3935 48.1418 35.3005C52.7178 41.6345 42.7538 46.6925 42.7538 46.6925Z" fill="#E76F00"/>
<path d="M57.3419 58.614C72.6052 50.8145 65.5482 43.3195 60.6224 44.3293C59.4149 44.5763 58.8767 44.7905 58.8767 44.7905C58.8767 44.7905 59.3249 44.1 60.1809 43.801C69.9257 40.4323 77.4199 53.7373 57.0352 59.007C57.0352 59.007 57.2714 58.7995 57.3419 58.614Z" fill="#5382A1"/>
<path d="M25.5823 48.7422C16.0326 47.4882 30.8186 44.0347 30.8186 44.0347C30.8186 44.0347 25.0766 43.654 18.0147 47.0107C9.66427 50.983 38.6701 52.7895 53.6849 48.9062C55.2459 47.858 57.4033 46.9495 57.4033 46.9495C57.4033 46.9495 51.2591 48.0285 45.1401 48.5362C37.6529 49.153 29.6146 49.2732 25.5823 48.7422Z" fill="#5382A1"/>
<path d="M29.2151 56.1896C23.8897 55.6481 27.3766 53.1099 27.3766 53.1099C13.5965 57.6074 35.0436 62.7076 54.2988 57.1706C52.2521 56.4611 50.9506 55.1634 50.9506 55.1634C41.5398 56.9454 36.1016 56.8884 29.2151 56.1896Z" fill="#5382A1"/>
<path d="M31.5353 64.2477C26.2141 63.6462 29.3228 61.8684 29.3228 61.8684C16.8139 65.3054 36.9313 72.4062 52.8573 65.6942C50.2488 64.6967 48.3811 63.5452 48.3811 63.5452C41.2768 64.8672 37.9818 64.9709 31.5353 64.2477Z" fill="#5382A1"/>
<path d="M64.8467 68.3471C64.8467 68.3471 67.1472 70.2111 62.313 71.6531C53.1203 74.3916 24.0523 75.2186 15.9774 71.7623C13.0746 70.5206 18.5181 68.7973 20.2304 68.4356C22.0161 68.0548 23.0366 68.1258 23.0366 68.1258C19.8085 65.8896 2.17122 72.5168 14.0778 74.4148C46.5488 79.5931 73.2692 72.0828 64.8467 68.3471Z" fill="#5382A1"/>
<path d="M69.9991 72.4197C69.4664 79.2367 46.9684 80.6707 32.3176 79.7484C22.7599 79.1457 20.8444 77.6394 20.8164 77.6174C29.9639 79.1004 45.3864 79.3704 57.8911 77.0562C68.9749 75.0039 69.9991 72.4197 69.9991 72.4197Z" fill="#5382A1"/>
</svg>
