<svg width="74" height="80" viewBox="0 0 74 80" fill="none" xmlns="http://www.w3.org/2000/svg">
<g clip-path="url(#clip0_433_1643)">
<path d="M72.3918 39.3516C72.3918 37.2572 71.5598 35.2485 70.0788 33.7676C68.5978 32.2866 66.5892 31.4546 64.4948 31.4546C64.213 31.4546 63.9372 31.4697 63.6645 31.497L74.513 -0.493896H28.416L39.2463 31.4697C39.0887 31.4697 38.9281 31.4546 38.7675 31.4546C36.8841 31.4564 35.0633 32.131 33.6333 33.3568C32.2034 34.5826 31.2585 36.2789 30.9689 38.14C30.6793 40.001 31.0642 41.9043 32.054 43.5066C33.0439 45.1089 34.5737 46.3049 36.3675 46.8788C34.688 49.7713 32.5964 52.404 30.1584 54.694C26.9858 57.7265 23.2171 60.066 19.0918 61.5637C16.7802 60.4674 14.9724 58.5325 14.0353 56.1519C13.0983 53.7713 13.1022 51.1233 14.0463 48.7455C14.2797 48.2 14.516 47.6485 14.7433 47.097C16.5049 46.6825 18.0709 45.6759 19.1795 44.2454C20.2882 42.815 20.8723 41.0474 20.8342 39.2381C20.7962 37.4287 20.1384 35.6873 18.9706 34.3047C17.8029 32.9221 16.196 31.9822 14.4185 31.642C12.6411 31.3018 10.8007 31.5819 9.20493 32.4356C7.6092 33.2893 6.3548 34.6648 5.65137 36.3323C4.94793 37.9997 4.83809 39.8581 5.34019 41.5968C5.84229 43.3355 6.92591 44.8492 8.40996 45.8849C5.88736 50.4557 3.96348 55.3321 2.68572 60.394C1.613 66.8637 2.68572 73.7273 8.27663 77.6091C21.3069 86.6425 35.4554 72.0091 50.3706 68.3334C55.7766 67 61.71 67.2152 66.4706 64.4546C68.1914 63.4762 69.6754 62.1303 70.8167 60.5129C71.958 58.8955 72.7286 57.0463 73.0736 55.097C73.3899 53.2406 73.33 51.3394 72.8975 49.5066C72.4649 47.6737 71.6684 45.9464 70.5554 44.4273C71.7434 43.0076 72.3935 41.2149 72.3918 39.3637V39.3516ZM46.6675 39.394V39.3667C46.6683 38.008 46.3184 36.6721 45.6516 35.4883C44.9848 34.3044 44.0238 33.3127 42.8615 32.6091L51.4797 15.1516L60.116 32.7697C59.0326 33.4897 58.1442 34.4668 57.5303 35.6137C56.9164 36.7606 56.5961 38.0416 56.5978 39.3425C56.5978 39.4 56.5978 39.4576 56.5978 39.5152L46.6675 39.394Z" fill="#99425B"/>
<path d="M74.321 39.3514C74.3173 37.0618 73.5156 34.8451 72.0537 33.083C70.5919 31.3208 68.5614 30.1234 66.3119 29.6969L77.2028 -2.42432H25.724L36.6331 29.7605C34.7277 30.1849 32.9919 31.1672 31.6472 32.5822C30.3025 33.9972 29.4098 35.7808 29.083 37.7053C28.7563 39.6298 29.0102 41.6081 29.8125 43.3876C30.6148 45.1672 31.9291 46.6674 33.5876 47.6969C32.2175 49.733 30.6237 51.6093 28.8361 53.2908C26.069 55.9374 22.8178 58.026 19.2604 59.4424C17.5905 58.4726 16.3248 56.935 15.694 55.1099C15.0632 53.2848 15.1093 51.2938 15.824 49.4999L15.9452 49.2181L16.1695 48.6878C18.1882 47.9875 19.9238 46.6484 21.1134 44.8735C22.3031 43.0985 22.882 40.9842 22.7625 38.8508C22.643 36.7174 21.8316 34.681 20.4512 33.0499C19.0708 31.4189 17.1966 30.282 15.1123 29.8115C13.0279 29.341 10.8471 29.5624 8.89984 30.4422C6.95261 31.322 5.34509 32.8124 4.32066 34.6876C3.29624 36.5628 2.9107 38.7207 3.22242 40.8346C3.53415 42.9485 4.52616 44.9033 6.04825 46.403C5.72098 47.103 5.37553 47.812 5.02098 48.5424C3.05709 52.1552 1.62805 56.0341 0.778556 60.0575C-0.630535 68.5424 1.64219 75.3393 7.17553 79.1727C10.1502 81.2998 13.7186 82.4374 17.3755 82.4242C23.8361 82.4242 30.3725 79.1787 36.7695 76.003C41.2388 73.5726 45.9543 71.6252 50.8361 70.1939C52.637 69.7808 54.4575 69.4582 56.2907 69.2272C60.1729 68.9172 63.9585 67.8594 67.4392 66.112C69.4029 64.9908 71.096 63.4513 72.3984 61.6027C73.7008 59.7541 74.5806 57.6417 74.9755 55.4151C75.6203 51.6329 74.8778 47.745 72.8846 44.4666C73.8277 42.9272 74.3228 41.1567 74.321 39.3514ZM70.4634 39.3514C70.4634 40.5321 70.1133 41.6863 69.4573 42.668C68.8014 43.6497 67.869 44.4149 66.7782 44.8667C65.6874 45.3186 64.4871 45.4368 63.3291 45.2064C62.1711 44.9761 61.1074 44.4075 60.2725 43.5727C59.4376 42.7378 58.8691 41.6741 58.6387 40.5161C58.4084 39.3581 58.5266 38.1578 58.9784 37.0669C59.4303 35.9761 60.1954 35.0438 61.1771 34.3878C62.1588 33.7319 63.313 33.3817 64.4937 33.3817C66.0762 33.3841 67.5932 34.0139 68.7123 35.1329C69.8313 36.2519 70.461 37.7689 70.4634 39.3514ZM71.8179 1.43326L62.1998 29.7969C61.7881 29.8972 61.3832 30.0237 60.9876 30.1757L51.4876 10.7817L41.9573 30.0605C41.5422 29.9174 41.1181 29.802 40.6876 29.7151L31.1028 1.43326H71.8179ZM38.7664 33.3817C39.9471 33.3817 41.1013 33.7319 42.083 34.3878C43.0647 35.0438 43.8299 35.9761 44.2817 37.0669C44.7336 38.1578 44.8518 39.3581 44.6214 40.5161C44.3911 41.6741 43.8225 42.7378 42.9876 43.5727C42.1528 44.4075 41.0891 44.9761 39.9311 45.2064C38.7731 45.4368 37.5728 45.3186 36.4819 44.8667C35.3911 44.4149 34.4588 43.6497 33.8028 42.668C33.1469 41.6863 32.7967 40.5321 32.7967 39.3514C32.7983 37.7687 33.4278 36.2512 34.547 35.132C35.6662 34.0128 37.1837 33.3833 38.7664 33.3817ZM12.9392 33.4393C14.1199 33.4393 15.274 33.7894 16.2557 34.4454C17.2375 35.1014 18.0026 36.0337 18.4544 37.1245C18.9063 38.2153 19.0245 39.4156 18.7942 40.5736C18.5638 41.7317 17.9953 42.7954 17.1604 43.6302C16.3255 44.4651 15.2618 45.0337 14.1038 45.264C12.9458 45.4943 11.7455 45.3761 10.6547 44.9243C9.56384 44.4725 8.6315 43.7073 7.97554 42.7256C7.31958 41.7439 6.96947 40.5897 6.96947 39.409C6.97107 37.8268 7.60012 36.3097 8.71865 35.1906C9.83718 34.0715 11.3569 33.4417 12.9392 33.4393ZM71.1725 54.7545C70.8734 56.425 70.2104 58.0093 69.2306 59.395C68.2507 60.7806 66.9781 61.9338 65.5028 62.7727C62.4432 64.261 59.1291 65.1556 55.7361 65.409C53.821 65.6848 51.8422 65.9696 49.9058 66.4484C44.7513 67.9416 39.7729 69.9867 35.0573 72.5484C25.4695 77.309 17.1786 81.4211 9.38462 76.012C3.66643 72.0484 3.93007 64.7151 4.59674 60.6969C5.38011 57.0385 6.68969 53.5129 8.48462 50.2302C8.7634 49.6545 9.03613 49.0939 9.3028 48.5363C10.1172 48.8605 10.9712 49.0745 11.8422 49.1727C11.0697 51.8968 11.2846 54.8063 12.449 57.3873C13.6134 59.9684 15.6523 62.055 18.2058 63.2787L18.9483 63.6605L19.7331 63.3787C24.1123 61.7995 28.113 59.3223 31.4786 56.106C33.7008 54.0134 35.6532 51.6517 37.2907 49.0757C39.385 49.3942 41.5262 49.0271 43.3947 48.029C45.2633 47.0309 46.759 45.4555 47.6588 43.5376C48.5586 41.6198 48.8141 39.4625 48.3874 37.3875C47.9606 35.3125 46.8743 33.4312 45.2907 32.0242L51.4664 19.5363L57.7058 32.2636C55.9306 33.9744 54.864 36.2906 54.718 38.7518C54.572 41.2129 55.3574 43.6389 56.9179 45.5477C58.4785 47.4564 60.7001 48.7081 63.1412 49.0541C65.5823 49.4001 68.0642 48.815 70.0937 47.4151C71.2194 49.6852 71.596 52.2538 71.1695 54.7514L71.1725 54.7545Z" fill="white"/>
</g>
<defs>
<clipPath id="clip0_433_1643">
<rect width="73.9394" height="80" fill="white"/>
</clipPath>
</defs>
</svg>
