<svg width="75" height="80" viewBox="0 0 75 80" fill="none" xmlns="http://www.w3.org/2000/svg">
<g clip-path="url(#clip0_433_1655)">
<path d="M40.4929 0.85349C38.4649 -0.287052 35.8209 -0.281938 33.7911 0.85349C23.6254 6.46363 13.4595 12.0755 3.29188 17.683C1.31339 18.7239 -0.0210347 20.8485 0.000250996 23.0537V56.9509C-0.0140347 59.1992 1.38919 61.3443 3.41871 62.3709C6.33917 63.9246 9.17657 65.636 12.1498 67.0863C15.5843 68.774 19.8812 69.1472 23.3577 67.3872C26.1797 65.9286 27.4331 62.6843 27.4294 59.7029C27.4523 48.516 27.4331 37.3289 27.4383 26.1417C27.5054 25.6446 27.132 25.1131 26.5897 25.1252C25.2906 25.1046 23.9897 25.1131 22.6906 25.1217C22.1997 25.0754 21.7206 25.4831 21.7577 25.9766C21.7403 37.0914 21.7611 48.2097 21.7471 59.3263C21.7754 60.864 20.7366 62.3417 19.2547 62.8611C15.832 64.0609 6.06279 57.7177 6.06279 57.7177C5.70428 57.5517 5.47662 57.1629 5.51177 56.7766C5.51177 45.5931 5.51351 34.4094 5.51177 23.2277C5.46248 22.7769 5.74034 22.3709 6.15434 22.1868C16.2867 16.6097 26.4137 11.0187 36.546 5.43818C36.898 5.20329 37.3886 5.20401 37.7397 5.43989C47.872 11.0187 58.0009 16.6046 68.1349 22.1819C68.5503 22.3657 68.8163 22.7786 68.774 23.2277C68.7723 34.4094 68.7774 45.5931 68.7706 56.7752C68.8006 57.1709 68.596 57.5543 68.2266 57.728C58.1889 63.2749 48.0368 68.6429 38.09 74.3509C37.656 74.5997 37.1643 74.8817 36.678 74.6074C34.0623 73.1606 31.4783 71.6574 28.8711 70.1966C28.5877 70.0197 28.2269 69.9437 27.9311 70.1417C26.7623 70.7577 25.6629 71.2566 24.3206 71.788C22.4354 72.5343 22.7366 72.8394 24.4369 73.83C27.4857 75.5554 30.5397 77.274 33.5886 79.0012C35.5957 80.2537 38.2926 80.3429 40.3643 79.1854C50.5317 73.5823 60.696 67.9726 70.8654 62.3694C72.8894 61.3372 74.2997 59.2006 74.2854 56.9506V23.0537C74.3051 20.8933 73.0217 18.8065 71.1029 17.7503C60.9017 12.1128 50.6957 6.48755 40.4929 0.85349Z" fill="#8CC84B"/>
<path d="M55.8334 26.3034C51.8428 24.1686 47.0954 24.0548 42.6608 24.334C39.4571 24.6506 36.0877 25.5346 33.7537 27.8311C31.3597 30.1397 30.8385 33.8677 31.9757 36.8814C32.7905 39.0111 34.8417 40.396 36.9628 41.1286C39.6951 42.0931 42.5648 42.3914 45.4354 42.6897C48.0537 42.9617 50.6728 43.234 53.1894 44.012C54.2174 44.3526 55.4145 44.8737 55.7294 45.9923C56.0202 47.3168 55.7014 48.8566 54.6259 49.7768C51.2099 52.4806 41.7077 52.0663 38.3325 49.9383C36.9679 49.0317 36.3799 47.4268 36.1408 45.8974C36.1142 45.4208 35.7305 44.9837 35.2131 45.02C33.9174 45.0046 32.6217 45.008 31.3259 45.0183C30.8739 44.9803 30.4039 45.302 30.3791 45.7634C30.1128 52.7683 36.5462 55.822 42.5819 56.4943C46.0302 56.8228 49.5542 56.804 52.9499 56.064C55.5025 55.4828 58.0619 54.4126 59.8191 52.4466C61.9859 50.0571 62.4119 46.4997 61.4402 43.5234C60.6974 41.3026 58.5742 39.878 56.4039 39.1451C53.4525 38.1331 49.9548 37.5891 47.2817 37.3346C43.3962 36.9646 38.7791 37.1157 37.6794 34.5626C37.2408 33.2257 37.6139 31.5657 38.8425 30.7434C42.0931 28.5386 48.7088 28.8314 52.0751 30.4786C53.6208 31.2526 54.5165 32.8423 54.8862 34.4471C54.9548 34.9186 55.2719 35.4106 55.8177 35.39C57.1045 35.4157 58.3914 35.3968 59.6779 35.3986C60.1199 35.4294 60.6039 35.18 60.6902 34.7274C60.6357 31.3731 58.9228 27.9394 55.8334 26.3034Z" fill="#8CC84B"/>
</g>
<defs>
<clipPath id="clip0_433_1655">
<rect width="74.2857" height="80" fill="white"/>
</clipPath>
</defs>
</svg>
