<svg width="93" height="80" viewBox="0 0 93 80" fill="none" xmlns="http://www.w3.org/2000/svg">
<path fill-rule="evenodd" clip-rule="evenodd" d="M73.5395 24.4728C75.2802 17.6146 77.4682 4.89676 69.7549 0.58501C62.0777 -3.70794 52.0872 4.51815 46.8119 9.45584C41.5519 4.56735 31.2808 -3.62357 23.5741 0.701871C15.8999 5.00922 18.2664 17.5162 20.0457 24.4174C12.887 26.3888 0.615234 30.635 0.615234 39.3104C0.615234 47.9611 12.8742 52.5808 19.9906 54.5504C18.2047 61.4897 15.9566 73.8181 23.6407 78.1159C31.3762 82.4405 41.6152 74.4445 46.9395 69.4528C52.2488 74.4196 62.1432 82.4679 69.822 78.1581C77.5248 73.8347 75.5186 61.2873 73.7392 54.3461C80.6377 52.3722 92.9229 47.8531 92.9229 39.3104C92.9229 30.7184 80.5854 26.4377 73.5395 24.4728ZM72.6651 50.6676C71.4968 47.0817 69.9199 43.2685 67.9909 39.3294C69.8322 35.4833 71.3479 31.7193 72.4835 28.1565C77.6488 29.6085 88.9799 32.927 88.9799 39.3104C88.9799 45.7537 78.1063 49.1036 72.6651 50.6676ZM67.846 74.8491C62.1168 78.0645 53.6063 70.3679 49.6854 66.7104C52.2866 63.9519 54.886 60.7451 57.4229 57.1842C61.8857 56.8005 66.1014 56.1728 69.9248 55.3159C71.1771 60.2257 73.6005 71.6193 67.846 74.8491ZM25.611 74.8033C19.8812 71.5999 22.5001 60.5987 23.8139 55.487C27.5947 56.2981 31.7802 56.8814 36.2534 57.2331C38.8069 60.7174 41.4817 63.9202 44.1771 66.7251C40.8469 69.8485 31.3675 78.0214 25.611 74.8033ZM4.55828 39.3104C4.55828 32.843 15.8216 29.5485 21.1046 28.1002C22.2599 31.743 23.7751 35.5519 25.6036 39.4036C23.7514 43.3125 22.2145 47.1817 21.0486 50.8676C16.0112 49.4694 4.55828 45.7817 4.55828 39.3104ZM25.5497 4.0108C31.3029 0.781934 40.2297 8.64553 44.0488 12.1849C41.3672 14.9769 38.7171 18.1556 36.1854 21.6199C31.8442 22.0101 27.6883 22.6365 23.8678 23.4759C22.4345 17.9098 19.8027 7.23618 25.5497 4.0108ZM60.2438 25.7756C63.1891 26.1359 66.0109 26.6153 68.6605 27.2017C67.8651 29.6737 66.8737 32.2587 65.706 34.9085C64.0134 31.7947 62.1965 28.7433 60.2438 25.7756ZM46.8131 14.9171C48.6318 16.8275 50.4534 18.9608 52.2454 21.2753C48.6106 21.1085 44.97 21.1079 41.3352 21.2728C43.1288 18.9798 44.966 16.8497 46.8131 14.9171ZM27.866 34.9058C26.7177 32.2651 25.7352 29.6688 24.9328 27.1614C27.5666 26.5901 30.3752 26.123 33.3014 25.7685C31.3432 28.7297 29.5294 31.7799 27.866 34.9058ZM33.3854 53.1251C30.3626 52.7981 27.5114 52.3547 24.8785 51.799C25.6935 49.2476 26.6976 46.5953 27.8705 43.8978C29.5568 47.0562 31.3983 50.1359 33.3854 53.1251ZM46.9223 63.9737C45.0534 62.0184 43.1891 59.8556 41.3685 57.5294C45.0238 57.6685 48.6863 57.6688 52.3414 57.5107C50.5439 59.8793 48.7288 62.0451 46.9223 63.9737ZM65.7435 43.7605C66.9774 46.4873 68.0174 49.1251 68.8435 51.6334C66.1669 52.2257 63.2774 52.7027 60.2328 53.0568C62.1999 50.0328 64.0457 46.9341 65.7435 43.7605ZM55.2223 53.5202C49.6309 53.9076 44.0048 53.9033 38.4115 53.5519C35.2334 49.0507 32.4042 44.3168 29.962 39.4024C32.3925 34.4981 35.2011 29.7734 38.3642 25.2793C43.9614 24.8691 49.5931 24.8679 55.1903 25.2817C58.3263 29.7756 61.1306 34.4879 63.6174 39.3479C61.1602 44.2497 58.3368 48.9839 55.2223 53.5202ZM67.7854 3.89713C73.5402 7.11541 70.9786 18.5453 69.7214 23.5156C65.8918 22.6587 61.7331 22.0211 57.3792 21.6248C54.8426 18.1231 52.2146 14.9389 49.5765 12.1829C53.4445 8.56732 62.0863 0.710333 67.7854 3.89713Z" fill="#53C1DE"/>
</svg>
