<svg width="88" height="80" viewBox="0 0 88 80" fill="none" xmlns="http://www.w3.org/2000/svg">
<path d="M59.6904 53.5781C62.7235 53.2693 65.0246 50.6986 64.92 47.6134C64.8156 44.5288 62.2005 42.0608 59.0627 42.0608H58.8537C55.6109 42.1636 53.1011 44.8373 53.2057 48.0249C53.3104 49.5674 53.9378 50.9041 54.8791 51.8296C51.323 58.7195 45.8841 63.7581 37.726 67.9743C32.1824 70.8534 26.4301 71.8819 20.6776 71.1622C15.9709 70.5452 12.3101 68.4888 10.0088 65.0948C6.66199 60.0562 6.34831 54.606 9.17237 49.1562C11.1597 45.2485 14.2972 42.369 16.2845 40.9293C15.8662 39.5926 15.2385 37.3304 14.9248 35.6852C-0.24115 46.4825 1.32788 61.0847 5.92999 67.9743C9.38138 73.1159 16.3892 76.3038 24.129 76.3038C26.2208 76.3038 28.3126 76.0978 30.4046 75.5841C43.7926 73.0132 53.938 65.1978 59.6904 53.5781ZM78.0989 40.8269C70.1498 31.6748 58.4353 26.6362 45.0474 26.6362H43.3742C42.4328 24.7852 40.4454 23.551 38.249 23.551H38.0397C34.7975 23.654 32.2876 26.3274 32.392 29.5153C32.4967 32.6003 35.1112 35.0682 38.249 35.0682H38.458C40.7591 34.9655 42.7465 33.5258 43.5832 31.5718H45.4657C53.415 31.5718 60.9454 33.834 67.7443 38.2559C72.9737 41.6493 76.7391 46.0712 78.8309 51.4184C80.609 55.7373 80.5043 59.9534 78.6216 63.5526C75.6931 69.0025 70.7775 71.9847 64.2926 71.9847C60.1087 71.9847 56.1345 70.7507 54.0424 69.8252C52.892 70.8534 50.8 72.4986 49.3356 73.5274C53.8334 75.5838 58.4353 76.7151 62.8282 76.7151C72.869 76.7151 80.2953 71.2647 83.1194 65.8148C86.1523 59.8504 85.943 49.5674 78.0989 40.8269ZM24.9657 55.3258C25.0704 58.4107 27.6852 60.8784 30.823 60.8784H31.0323C34.2745 60.7759 36.7846 58.1022 36.68 54.9145C36.5756 51.8293 33.9605 49.3616 30.823 49.3616H30.6139C30.4046 49.3616 30.0906 49.3616 29.8819 49.4641C25.5934 42.4718 23.8154 34.8625 24.443 26.6359C24.8611 20.4659 26.9531 15.1186 30.6139 10.6967C33.6468 6.89192 39.5041 5.04099 43.4789 4.93841C54.5654 4.7326 59.2717 18.3063 59.5857 23.7564C60.9454 24.0649 63.2465 24.7849 64.8156 25.2992C63.5602 8.6406 53.1011 0.00268555 43.0605 0.00268555C33.6468 0.00268555 24.9657 6.68677 21.514 16.5585C16.7029 29.7208 19.8406 42.369 25.6977 52.3438C25.1751 53.0636 24.8611 54.1945 24.9657 55.3258Z" fill="#764ABC"/>
</svg>
