<svg width="108" height="80" viewBox="0 0 108 80" fill="none" xmlns="http://www.w3.org/2000/svg">
<g clip-path="url(#clip0_433_1632)">
<path d="M92.7304 46.0461C89.3485 46.0506 86.0118 46.8239 82.9727 48.3077C82.0212 46.7286 81.2864 45.0288 80.7881 43.2538C80.5018 41.8625 80.4356 40.4349 80.5919 39.023C80.9207 37.4695 81.3472 35.9382 81.8689 34.4384C81.8496 34.2423 81.6343 33.3153 79.4689 33.2846C77.3035 33.2538 75.4381 33.6961 75.2381 34.2692C74.862 35.3159 74.56 36.3878 74.3343 37.4769C72.5421 41.8981 70.3362 46.14 67.7458 50.1461C66.2945 47.7669 65.6976 44.9641 66.0535 42.2C66.3822 40.6464 66.8087 39.1152 67.3304 37.6153C67.3112 37.4192 67.0958 36.4923 64.9304 36.4615C62.765 36.4307 60.8996 36.873 60.6996 37.4461C60.4996 38.0192 60.2458 39.3692 59.7958 40.6538C59.3458 41.9384 54.0919 53.6769 52.715 56.7038C52.0073 58.2423 51.3958 59.4961 50.965 60.3423C50.9446 60.3972 50.9188 60.45 50.8881 60.5C50.5035 61.2269 50.2996 61.623 50.2996 61.623V61.6423C50.0035 62.173 49.6881 62.6653 49.5304 62.6653C49.2554 61.5665 49.2686 60.4153 49.5689 59.323C50.3381 55.25 52.2227 48.9192 52.2035 48.7C52.2035 48.5807 52.5573 47.4807 50.9843 46.9115C50.6194 46.7379 50.2097 46.6816 49.8116 46.7505C49.4135 46.8194 49.0465 47.01 48.7612 47.2961C48.6227 47.2961 48.5266 47.6307 48.5266 47.6307C48.5266 47.6307 50.2381 40.5115 45.2612 40.5115C43.3231 40.9013 41.4825 41.6749 39.8477 42.7865C38.2129 43.8981 36.817 45.3255 35.7419 46.9846C34.4035 47.7115 31.5535 49.2653 28.5035 50.9384C27.3496 51.5884 26.1419 52.2384 25.0227 52.8615C24.9458 52.7846 24.865 52.6846 24.7881 52.6077C18.7304 46.1538 7.59579 41.6 8.07656 32.9653C8.25349 29.8192 9.33426 21.5577 29.4573 11.523C46.0189 3.3615 59.1996 5.62304 61.4804 10.6384C64.7458 17.8 54.4189 31.0961 37.3073 33.023C35.4143 33.4071 33.4591 33.3608 31.5864 32.8874C29.7137 32.4141 27.9713 31.5259 26.4881 30.2884C25.5843 29.3038 25.4458 29.2461 25.1112 29.4423C24.5612 29.7384 24.915 30.623 25.1112 31.1346C25.764 32.3159 26.6469 33.3545 27.7078 34.1888C28.7688 35.0231 29.9862 35.6364 31.2881 35.9923C38.0198 37.447 45.0383 36.7514 51.3535 34.0038C61.7381 29.9923 69.815 18.8384 67.4458 9.49612C65.065 0.0153471 49.3304 -3.11158 34.4381 2.18842C25.1102 5.32717 16.4913 10.2711 9.07272 16.7384C0.868872 24.4115 -0.427282 31.0769 0.103487 33.873C2.02656 43.7884 15.6843 50.2384 21.1496 55.0269C20.8727 55.1846 20.6189 55.323 20.4035 55.4384C17.6689 56.7961 7.24579 62.2461 4.63426 68.0077C1.68426 74.5461 5.10733 79.2192 7.36887 79.85C10.7766 80.6657 14.354 80.397 17.6016 79.0814C20.8492 77.7658 23.605 75.4689 25.4843 72.5115C27.0845 70.0585 28.0681 67.255 28.3514 64.3399C28.6347 61.4248 28.2092 58.4844 27.1112 55.7692C27.0926 55.7253 27.0666 55.685 27.0343 55.65L29.1766 54.3923C30.5727 53.5653 31.9496 52.8 33.1304 52.1692C32.3297 54.4786 31.8597 56.8897 31.7343 59.3307C31.4624 63.0722 32.6074 66.779 34.9419 69.7153C35.2972 70.0211 35.7096 70.2534 36.1552 70.3986C36.6009 70.5439 37.0709 70.5992 37.5381 70.5615C39.8458 70.5615 40.9035 68.6384 42.0612 66.3538C43.4766 63.5615 44.7535 60.3153 44.7535 60.3153C44.7535 60.3153 43.1612 69.0884 47.4881 69.0884C49.0612 69.0884 50.6535 67.0423 51.365 66.0115V66.0307C51.365 66.0307 51.4035 65.973 51.4843 65.8346L51.7381 65.423V65.3846C52.3689 64.2846 53.7843 61.7846 55.8881 57.6346C58.6035 52.2846 61.2189 45.5961 61.2189 45.5961C61.4711 47.066 61.8193 48.5178 62.2612 49.9423C62.8947 51.6689 63.6438 53.351 64.5035 54.9769C63.8727 55.8615 63.4804 56.3538 63.4804 56.3538L63.4996 56.373C62.9881 57.0423 62.4381 57.7692 61.8266 58.4769C60.0071 60.4772 58.319 62.5932 56.7727 64.8115C56.543 65.1841 56.464 65.6303 56.5519 66.0591C56.6398 66.4879 56.888 66.8671 57.2458 67.1192C58.0555 67.5405 58.9783 67.6927 59.8804 67.5538C61.2398 67.4771 62.5765 67.1715 63.8343 66.65C65.0497 66.2222 66.1963 65.6198 67.2381 64.8615C68.3121 64.1175 69.1766 63.1096 69.7484 61.9349C70.3203 60.7602 70.5803 59.4581 70.5035 58.1538C70.3825 56.5109 69.9629 54.9038 69.265 53.4115C69.4612 53.1346 69.6496 52.8615 69.8343 52.5846C72.0209 49.3207 73.9918 45.9173 75.7343 42.3961C75.9865 43.866 76.3347 45.3178 76.7766 46.7423C77.299 48.2344 77.9422 49.6815 78.6996 51.0692C76.184 53.0046 74.2026 55.5486 72.9419 58.4615C71.7035 62.0423 72.665 63.6538 74.4804 64.0269C75.4738 64.0954 76.467 63.8919 77.3535 63.4384C78.6568 63.0101 79.8847 62.3793 80.992 61.5692C82.1595 60.8802 83.1373 59.9117 83.8376 58.7508C84.5378 57.59 84.9385 56.2733 85.0035 54.9192C84.9162 53.5675 84.611 52.2389 84.0996 50.9846C87.4193 49.6877 91.0186 49.2742 94.5458 49.7846C103.907 50.8846 105.757 56.7269 105.403 59.1884C105.238 60.0611 104.887 60.8881 104.375 61.6138C103.862 62.3396 103.201 62.9473 102.434 63.3961C101.784 63.8077 101.569 63.9461 101.627 64.2423C101.703 64.6769 102.011 64.6538 102.569 64.5769C103.98 64.1384 105.225 63.2824 106.139 62.122C107.054 60.9616 107.595 59.5512 107.692 58.0769C107.988 52.3077 102.48 45.9807 92.742 46.0384L92.7304 46.0461ZM20.4996 70.3846C17.3919 73.7692 13.065 75.0461 11.1958 73.9653C9.1881 72.8115 9.97656 67.8115 13.7919 64.2269C16.0552 62.1895 18.5015 60.3652 21.0996 58.7769C21.5535 58.5 22.2227 58.1077 23.0227 57.623L23.2381 57.5038L23.7112 57.2077C24.3928 59.4915 24.4546 61.9155 23.8903 64.2311C23.3259 66.5467 22.1557 68.6705 20.4996 70.3846ZM43.1189 55C42.0381 57.6346 39.7766 64.3846 38.3996 64.0077C37.2189 63.6923 36.4766 58.5769 38.165 53.523C39.0175 51.0902 40.2593 48.8118 41.8419 46.7769C43.5343 44.8884 45.4035 44.2577 45.8535 45.0269C45.4429 48.4687 44.5213 51.8301 43.1189 55ZM61.7843 63.9307C61.3304 64.1654 60.8996 64.3154 60.7035 64.2077C60.565 64.1307 60.8996 63.823 60.8996 63.823C60.8996 63.823 63.2419 61.3038 64.165 60.1653C64.6958 59.4961 65.3189 58.7115 65.9958 57.823V58.0769C65.9958 61.0846 63.0843 63.1115 61.7881 63.9384L61.7843 63.9307ZM76.1843 60.6461C75.8496 60.4115 75.9073 59.623 77.0304 57.1653C77.8113 55.5869 78.9022 54.182 80.2381 53.0346C80.4429 53.6168 80.5495 54.229 80.5535 54.8461C80.5686 56.1597 80.1486 57.4414 79.359 58.4913C78.5693 59.5412 77.4544 60.3002 76.1881 60.65L76.1843 60.6461Z" fill="#CD6799"/>
</g>
<defs>
<clipPath id="clip0_433_1632">
<rect width="107.692" height="80" fill="white"/>
</clipPath>
</defs>
</svg>
