<svg width="1153" height="861" viewBox="0 0 1153 861" fill="none" xmlns="http://www.w3.org/2000/svg">
<g clip-path="url(#clip0_493_1251)">
<path d="M713.189 698.12H452.023V807.992H713.189V698.12Z" fill="#8C81E6" stroke="#263238" stroke-linecap="round" stroke-linejoin="round"/>
<path d="M482.049 704.77H457.48V718.353H482.049V704.77Z" fill="white" stroke="#263238" stroke-miterlimit="10"/>
<path d="M707.142 770.999H668.443V784.581H707.142V770.999Z" fill="white" stroke="#263238" stroke-miterlimit="10"/>
<path d="M707.143 721.735H683.254V735.317H707.143V721.735Z" fill="white" stroke="#263238" stroke-miterlimit="10"/>
<path d="M482.049 754.25H457.48V767.832H482.049V754.25Z" fill="white" stroke="#263238" stroke-miterlimit="10"/>
<path d="M477.373 737.885H457.48V751.467H477.373V737.885Z" fill="white" stroke="#263238" stroke-miterlimit="10"/>
<path d="M471.078 721.327H457.48V734.91H471.078V721.327Z" fill="white" stroke="#263238" stroke-miterlimit="10"/>
<path d="M488.447 721.327H474.85V734.91H488.447V721.327Z" fill="white" stroke="#263238" stroke-miterlimit="10"/>
<path d="M505.803 721.327H492.205V734.91H505.803V721.327Z" fill="white" stroke="#263238" stroke-miterlimit="10"/>
<path d="M523.16 721.327H509.562V734.91H523.16V721.327Z" fill="white" stroke="#263238" stroke-miterlimit="10"/>
<path d="M540.527 721.327H526.93V734.91H540.527V721.327Z" fill="white" stroke="#263238" stroke-miterlimit="10"/>
<path d="M557.885 721.327H544.287V734.91H557.885V721.327Z" fill="white" stroke="#263238" stroke-miterlimit="10"/>
<path d="M575.24 721.327H561.643V734.91H575.24V721.327Z" fill="white" stroke="#263238" stroke-miterlimit="10"/>
<path d="M592.609 721.327H579.012V734.91H592.609V721.327Z" fill="white" stroke="#263238" stroke-miterlimit="10"/>
<path d="M609.965 721.327H596.367V734.91H609.965V721.327Z" fill="white" stroke="#263238" stroke-miterlimit="10"/>
<path d="M627.322 721.327H613.725V734.91H627.322V721.327Z" fill="white" stroke="#263238" stroke-miterlimit="10"/>
<path d="M644.69 721.327H631.092V734.91H644.69V721.327Z" fill="white" stroke="#263238" stroke-miterlimit="10"/>
<path d="M662.047 721.327H648.449V734.91H662.047V721.327Z" fill="white" stroke="#263238" stroke-miterlimit="10"/>
<path d="M679.416 721.327H665.818V734.91H679.416V721.327Z" fill="white" stroke="#263238" stroke-miterlimit="10"/>
<path d="M471.078 787.76H457.48V801.342H471.078V787.76Z" fill="white" stroke="#263238" stroke-miterlimit="10"/>
<path d="M488.447 787.76H474.85V801.342H488.447V787.76Z" fill="white" stroke="#263238" stroke-miterlimit="10"/>
<path d="M505.803 787.76H492.205V801.342H505.803V787.76Z" fill="white" stroke="#263238" stroke-miterlimit="10"/>
<path d="M526.161 787.76H509.562V801.342H526.161V787.76Z" fill="white" stroke="#263238" stroke-miterlimit="10"/>
<path d="M612.967 787.76H529.92V801.342H612.967V787.76Z" fill="white" stroke="#263238" stroke-miterlimit="10"/>
<path d="M654.484 787.76H640.887V801.342H654.484V787.76Z" fill="white" stroke="#263238" stroke-miterlimit="10"/>
<path d="M671.84 787.76H658.242V801.342H671.84V787.76Z" fill="white" stroke="#263238" stroke-miterlimit="10"/>
<path d="M689.231 787.76H675.633V801.342H689.231V787.76Z" fill="white" stroke="#263238" stroke-miterlimit="10"/>
<path d="M637.479 787.76H616.363V801.342H637.479V787.76Z" fill="white" stroke="#263238" stroke-miterlimit="10"/>
<path d="M707.143 787.76H693.545V801.342H707.143V787.76Z" fill="white" stroke="#263238" stroke-miterlimit="10"/>
<path d="M494.832 737.885H481.234V751.467H494.832V737.885Z" fill="white" stroke="#263238" stroke-miterlimit="10"/>
<path d="M512.19 737.885H498.592V751.467H512.19V737.885Z" fill="white" stroke="#263238" stroke-miterlimit="10"/>
<path d="M529.557 737.885H515.959V751.467H529.557V737.885Z" fill="white" stroke="#263238" stroke-miterlimit="10"/>
<path d="M546.914 737.885H533.316V751.467H546.914V737.885Z" fill="white" stroke="#263238" stroke-miterlimit="10"/>
<path d="M564.281 737.885H550.684V751.467H564.281V737.885Z" fill="white" stroke="#263238" stroke-miterlimit="10"/>
<path d="M581.639 737.885H568.041V751.467H581.639V737.885Z" fill="white" stroke="#263238" stroke-miterlimit="10"/>
<path d="M598.994 737.885H585.396V751.467H598.994V737.885Z" fill="white" stroke="#263238" stroke-miterlimit="10"/>
<path d="M616.363 737.885H602.766V751.467H616.363V737.885Z" fill="white" stroke="#263238" stroke-miterlimit="10"/>
<path d="M633.719 737.885H620.121V751.467H633.719V737.885Z" fill="white" stroke="#263238" stroke-miterlimit="10"/>
<path d="M651.076 737.885H637.479V751.467H651.076V737.885Z" fill="white" stroke="#263238" stroke-miterlimit="10"/>
<path d="M668.443 737.885H654.846V751.467H668.443V737.885Z" fill="white" stroke="#263238" stroke-miterlimit="10"/>
<path d="M685.801 737.885H672.203V751.467H685.801V737.885Z" fill="white" stroke="#263238" stroke-miterlimit="10"/>
<path d="M707.144 737.885V768.036H693.546V751.479H689.561V737.885H707.144Z" fill="white" stroke="#263238" stroke-miterlimit="10"/>
<path d="M498.817 754.442H485.219V768.024H498.817V754.442Z" fill="white" stroke="#263238" stroke-miterlimit="10"/>
<path d="M516.174 754.442H502.576V768.024H516.174V754.442Z" fill="white" stroke="#263238" stroke-miterlimit="10"/>
<path d="M533.531 754.442H519.934V768.024H533.531V754.442Z" fill="white" stroke="#263238" stroke-miterlimit="10"/>
<path d="M550.899 754.442H537.301V768.024H550.899V754.442Z" fill="white" stroke="#263238" stroke-miterlimit="10"/>
<path d="M568.256 754.442H554.658V768.024H568.256V754.442Z" fill="white" stroke="#263238" stroke-miterlimit="10"/>
<path d="M585.623 754.442H572.025V768.024H585.623V754.442Z" fill="white" stroke="#263238" stroke-miterlimit="10"/>
<path d="M602.981 754.442H589.383V768.024H602.981V754.442Z" fill="white" stroke="#263238" stroke-miterlimit="10"/>
<path d="M620.336 754.442H606.738V768.024H620.336V754.442Z" fill="white" stroke="#263238" stroke-miterlimit="10"/>
<path d="M637.705 754.442H624.107V768.024H637.705V754.442Z" fill="white" stroke="#263238" stroke-miterlimit="10"/>
<path d="M655.061 754.442H641.463V768.024H655.061V754.442Z" fill="white" stroke="#263238" stroke-miterlimit="10"/>
<path d="M672.418 754.442H658.82V768.024H672.418V754.442Z" fill="white" stroke="#263238" stroke-miterlimit="10"/>
<path d="M689.785 754.442H676.188V768.024H689.785V754.442Z" fill="white" stroke="#263238" stroke-miterlimit="10"/>
<path d="M491.436 770.999H477.838V784.581H491.436V770.999Z" fill="white" stroke="#263238" stroke-miterlimit="10"/>
<path d="M508.793 770.999H495.195V784.581H508.793V770.999Z" fill="white" stroke="#263238" stroke-miterlimit="10"/>
<path d="M526.16 770.999H512.562V784.581H526.16V770.999Z" fill="white" stroke="#263238" stroke-miterlimit="10"/>
<path d="M543.518 770.999H529.92V784.581H543.518V770.999Z" fill="white" stroke="#263238" stroke-miterlimit="10"/>
<path d="M560.873 770.999H547.275V784.581H560.873V770.999Z" fill="white" stroke="#263238" stroke-miterlimit="10"/>
<path d="M578.242 770.999H564.645V784.581H578.242V770.999Z" fill="white" stroke="#263238" stroke-miterlimit="10"/>
<path d="M595.598 770.999H582V784.581H595.598V770.999Z" fill="white" stroke="#263238" stroke-miterlimit="10"/>
<path d="M612.967 770.999H599.369V784.581H612.967V770.999Z" fill="white" stroke="#263238" stroke-miterlimit="10"/>
<path d="M630.322 770.999H616.725V784.581H630.322V770.999Z" fill="white" stroke="#263238" stroke-miterlimit="10"/>
<path d="M647.68 770.999H634.082V784.581H647.68V770.999Z" fill="white" stroke="#263238" stroke-miterlimit="10"/>
<path d="M665.047 770.999H651.449V784.581H665.047V770.999Z" fill="white" stroke="#263238" stroke-miterlimit="10"/>
<path d="M498.817 705.584H485.219V719.167H498.817V705.584Z" fill="white" stroke="#263238" stroke-miterlimit="10"/>
<path d="M516.174 705.584H502.576V719.167H516.174V705.584Z" fill="white" stroke="#263238" stroke-miterlimit="10"/>
<path d="M533.531 705.584H519.934V719.167H533.531V705.584Z" fill="white" stroke="#263238" stroke-miterlimit="10"/>
<path d="M550.899 705.584H537.301V719.167H550.899V705.584Z" fill="white" stroke="#263238" stroke-miterlimit="10"/>
<path d="M568.256 705.584H554.658V719.167H568.256V705.584Z" fill="white" stroke="#263238" stroke-miterlimit="10"/>
<path d="M585.623 705.584H572.025V719.167H585.623V705.584Z" fill="white" stroke="#263238" stroke-miterlimit="10"/>
<path d="M602.981 705.584H589.383V719.167H602.981V705.584Z" fill="white" stroke="#263238" stroke-miterlimit="10"/>
<path d="M620.336 705.584H606.738V719.167H620.336V705.584Z" fill="white" stroke="#263238" stroke-miterlimit="10"/>
<path d="M637.705 705.584H624.107V719.167H637.705V705.584Z" fill="white" stroke="#263238" stroke-miterlimit="10"/>
<path d="M655.061 705.584H641.463V719.167H655.061V705.584Z" fill="white" stroke="#263238" stroke-miterlimit="10"/>
<path d="M672.418 705.584H658.82V719.167H672.418V705.584Z" fill="white" stroke="#263238" stroke-miterlimit="10"/>
<path d="M689.785 705.584H676.188V719.167H689.785V705.584Z" fill="white" stroke="#263238" stroke-miterlimit="10"/>
<path d="M707.143 705.584H693.545V719.167H707.143V705.584Z" fill="white" stroke="#263238" stroke-miterlimit="10"/>
<path d="M473.954 770.999H457.48V784.581H473.954V770.999Z" fill="white" stroke="#263238" stroke-miterlimit="10"/>
<path d="M452.023 698.821L457.481 697.012H709.645L713.234 698.799L452.023 698.821Z" fill="#263238"/>
<path opacity="0.2" d="M638.44 887.26L633.13 855.311C631.958 850.55 629.467 846.215 625.941 842.803C615.378 832.624 601.417 822.174 600.817 808.874C599.9 788.517 596.719 789.094 597.058 784.061C598.438 781.658 599.652 779.164 600.693 776.597C601.35 774.623 601.865 772.605 602.233 770.558C602.448 769.552 603.033 768.664 603.871 768.068C604.709 767.471 605.74 767.21 606.761 767.334C608.196 767.524 609.537 768.152 610.6 769.133C612.468 771.123 613.498 773.755 613.475 776.484C613.443 779.183 613.062 781.866 612.343 784.468C614.121 788.967 615.264 793.69 615.74 798.503C616.951 794.771 617.868 791.005 619.08 787.284C619.329 787.149 619.238 786.855 619.476 786.719C617.766 783.055 619.216 783.258 615.83 775.194C610.169 761.623 603.784 748.538 599.244 731.483C598.875 729.901 598.91 728.253 599.346 726.688C600.987 721.813 606.014 722.933 608.211 725.772C608.785 726.521 609.243 727.352 609.569 728.237C612.551 735.501 616.177 742.484 620.404 749.103L632.734 767.877C632.734 767.877 637.025 764.36 637.682 762.788C638.327 761.205 638.644 748.459 638.644 748.459C638.644 748.459 637.671 750.845 635.508 750.721C633.946 750.608 630.775 751.512 628.522 748.979C627.648 747.955 627.15 746.662 627.113 745.317C627.076 743.971 627.502 742.653 628.319 741.583L633.9 734.05C635.123 733.087 636.588 732.48 638.134 732.294C639.68 732.108 641.247 732.352 642.664 732.999C646.268 734.809 649.589 737.133 652.525 739.897C655.472 739.814 658.402 740.378 661.107 741.549C665.059 743.449 669.202 748.9 669.202 748.9C669.202 748.9 673.811 749.183 675.882 750.687C676.403 751.06 683.434 761.996 680.898 770.512C679.392 775.59 678.464 782.953 677.785 784.943L674.331 834.807L681.294 867.605L666.406 875.894C660.967 878.924 655.273 881.471 649.389 883.506L638.44 887.26Z" fill="black"/>
<path d="M680.717 828.994L680.853 778.994C681.396 776.981 681.838 769.562 682.992 764.394C684.962 755.731 677.218 745.281 676.675 744.941C674.501 743.596 669.882 743.618 669.882 743.618C669.882 743.618 665.353 738.45 661.311 736.833C658.537 735.828 655.577 735.442 652.638 735.702C649.526 733.134 646.055 731.035 642.335 729.47C640.879 728.92 639.3 728.781 637.77 729.069C636.24 729.356 634.819 730.058 633.662 731.099L628.601 739.015C627.855 740.138 627.516 741.482 627.642 742.824C627.768 744.166 628.35 745.424 629.292 746.389C631.715 748.775 634.817 747.656 636.38 747.656C638.542 747.656 639.357 745.213 639.357 745.213C639.357 745.213 639.889 757.947 639.357 759.565C638.803 761.182 634.749 764.971 634.749 764.971L621.163 747.068C616.496 740.748 612.415 734.018 608.969 726.959C608.578 726.101 608.063 725.304 607.441 724.596C605.063 721.904 599.979 721.124 598.655 726.088C598.329 727.68 598.403 729.328 598.87 730.884C604.531 747.599 611.754 760.232 618.332 773.396C622.238 781.211 620.789 781.121 622.737 784.649C622.51 784.808 622.623 785.102 622.374 785.249C621.423 789.049 620.755 792.86 619.793 796.66C618.995 791.889 617.536 787.253 615.457 782.885C616.006 780.238 616.208 777.531 616.057 774.833C615.887 772.106 614.67 769.549 612.66 767.696C611.534 766.787 610.153 766.249 608.709 766.158C607.672 766.091 606.648 766.417 605.842 767.071C605.036 767.725 604.507 768.66 604.361 769.687C604.134 771.751 603.756 773.796 603.229 775.805C602.361 778.436 601.317 781.005 600.104 783.496C600.104 788.54 603.229 787.714 605.504 808.003C607.271 823.837 627.65 834.253 638.746 845.664L650.566 882.827C664.403 877.237 677.66 870.309 690.148 862.142L680.717 828.994Z" fill="white"/>
<mask id="mask0_493_1251" style="mask-type:luminance" maskUnits="userSpaceOnUse" x="598" y="722" width="93" height="161">
<path d="M680.717 828.994L680.853 778.994C681.396 776.981 681.838 769.562 682.992 764.394C684.962 755.731 677.218 745.281 676.675 744.941C674.501 743.596 669.882 743.618 669.882 743.618C669.882 743.618 665.353 738.45 661.311 736.833C658.537 735.828 655.577 735.442 652.638 735.702C649.526 733.134 646.055 731.035 642.335 729.47C640.879 728.92 639.3 728.781 637.77 729.069C636.24 729.356 634.819 730.058 633.662 731.099L628.601 739.015C627.855 740.138 627.516 741.482 627.642 742.824C627.768 744.166 628.35 745.424 629.292 746.389C631.715 748.775 634.817 747.656 636.38 747.656C638.542 747.656 639.357 745.213 639.357 745.213C639.357 745.213 639.889 757.947 639.357 759.565C638.803 761.182 634.749 764.971 634.749 764.971L621.163 747.068C616.496 740.748 612.415 734.018 608.969 726.959C608.578 726.101 608.063 725.304 607.441 724.596C605.063 721.904 599.979 721.124 598.655 726.088C598.329 727.68 598.403 729.328 598.87 730.884C604.531 747.599 611.754 760.232 618.332 773.396C622.238 781.211 620.789 781.121 622.737 784.649C622.51 784.808 622.623 785.102 622.374 785.249C621.423 789.049 620.755 792.86 619.793 796.66C618.995 791.889 617.536 787.253 615.457 782.885C616.006 780.238 616.208 777.531 616.057 774.833C615.887 772.106 614.67 769.549 612.66 767.696C611.534 766.787 610.153 766.249 608.709 766.158C607.672 766.091 606.648 766.417 605.842 767.071C605.036 767.725 604.507 768.66 604.361 769.687C604.134 771.751 603.756 773.796 603.229 775.805C602.361 778.436 601.317 781.005 600.104 783.496C600.104 788.54 603.229 787.714 605.504 808.003C607.271 823.837 627.65 834.253 638.746 845.664L650.566 882.827C664.403 877.237 677.66 870.309 690.148 862.142L680.717 828.994Z" fill="white"/>
</mask>
<g mask="url(#mask0_493_1251)">
<path d="M674.919 761.057C675.408 759.54 676.305 758.187 677.512 757.144C678.132 756.645 678.911 756.385 679.707 756.412C680.503 756.439 681.263 756.751 681.848 757.291C681.003 754.705 680.104 752.13 679.153 749.567C678.585 747.558 677.5 745.733 676.006 744.274C674.398 742.962 671.749 742.691 670.345 744.274C671.327 750.186 671.434 756.211 670.662 762.154C670.243 765.366 669.699 769.053 671.862 771.462C672.462 771.949 673.504 771.078 673.119 770.41C672.937 770.094 672.303 770.071 671.986 770.094C672.713 767.006 673.693 763.984 674.919 761.057Z" fill="#8C81E6"/>
<path d="M674.919 761.057C675.408 759.54 676.305 758.187 677.512 757.144C678.132 756.645 678.911 756.385 679.707 756.412C680.503 756.439 681.263 756.751 681.848 757.291C681.003 754.705 680.104 752.13 679.153 749.567C678.585 747.558 677.5 745.733 676.006 744.274C674.398 742.962 671.749 742.691 670.345 744.274C671.327 750.186 671.434 756.211 670.662 762.154C670.243 765.366 669.699 769.053 671.862 771.462C672.462 771.949 673.504 771.078 673.119 770.41C672.937 770.094 672.303 770.071 671.986 770.094C672.713 767.006 673.693 763.984 674.919 761.057Z" fill="#8C81E6"/>
<path opacity="0.5" d="M674.919 761.057C675.408 759.54 676.305 758.187 677.512 757.144C678.132 756.645 678.911 756.385 679.707 756.412C680.503 756.439 681.263 756.751 681.848 757.291C681.003 754.705 680.104 752.13 679.153 749.567C678.585 747.558 677.5 745.733 676.006 744.274C674.398 742.962 671.749 742.691 670.345 744.274C671.327 750.186 671.434 756.211 670.662 762.154C670.243 765.366 669.699 769.053 671.862 771.462C672.462 771.949 673.504 771.078 673.119 770.41C672.937 770.094 672.303 770.071 671.986 770.094C672.713 767.006 673.693 763.984 674.919 761.057Z" fill="white"/>
<path d="M656.848 755.697C656.83 757.876 657.035 760.051 657.46 762.188C657.68 763.257 658.114 764.27 658.737 765.166C659.36 766.062 660.158 766.823 661.083 767.402C659.95 763.195 660.562 758.728 661.173 754.419L662.305 746.502C662.361 745.576 662.637 744.677 663.109 743.878C663.351 743.486 663.719 743.188 664.153 743.031C664.587 742.875 665.061 742.871 665.498 743.019C664.366 743.675 662.928 742.793 662.249 741.684C661.74 740.49 661.161 739.327 660.517 738.201C658.999 736.256 655.761 735.826 653.52 736.346C654.188 742.849 656.588 749.024 656.848 755.697Z" fill="#8C81E6"/>
<path d="M656.848 755.697C656.83 757.876 657.035 760.051 657.46 762.188C657.68 763.257 658.114 764.27 658.737 765.166C659.36 766.062 660.158 766.823 661.083 767.402C659.95 763.195 660.562 758.728 661.173 754.419L662.305 746.502C662.361 745.576 662.637 744.677 663.109 743.878C663.351 743.486 663.719 743.188 664.153 743.031C664.587 742.875 665.061 742.871 665.498 743.019C664.366 743.675 662.928 742.793 662.249 741.684C661.74 740.49 661.161 739.327 660.517 738.201C658.999 736.256 655.761 735.826 653.52 736.346C654.188 742.849 656.588 749.024 656.848 755.697Z" fill="#8C81E6"/>
<g opacity="0.5">
<path d="M656.848 755.697C656.83 757.876 657.035 760.051 657.46 762.188C657.68 763.257 658.114 764.27 658.737 765.166C659.36 766.062 660.158 766.823 661.083 767.402C659.95 763.195 660.562 758.728 661.173 754.419L662.305 746.502C662.361 745.576 662.637 744.677 663.109 743.878C663.351 743.486 663.719 743.188 664.153 743.031C664.587 742.875 665.061 742.871 665.498 743.019C664.366 743.675 662.928 742.793 662.249 741.684C661.74 740.49 661.161 739.327 660.517 738.201C658.999 736.256 655.761 735.826 653.52 736.346C654.188 742.849 656.588 749.024 656.848 755.697Z" fill="white"/>
</g>
<path d="M638.372 738.258C637.71 737.627 637.286 736.789 637.172 735.883C637.112 735.437 636.964 735.007 636.737 734.619C636.509 734.23 636.207 733.891 635.847 733.621C632.371 735.826 634.273 742.284 630.752 744.421C630.073 744.84 629.201 745.077 628.827 745.778C628.681 746.109 628.638 746.476 628.704 746.832C628.771 747.187 628.944 747.514 629.201 747.769C629.729 748.268 630.404 748.586 631.126 748.674C632.536 748.869 633.973 748.672 635.279 748.106C636.585 747.539 637.71 746.624 638.53 745.462C639.911 743.562 640.863 740.508 640.183 738.258C639.91 738.423 639.597 738.511 639.277 738.511C638.958 738.511 638.645 738.423 638.372 738.258Z" fill="#8C81E6"/>
<path d="M602.22 780.544C602.22 780.781 602.118 781.087 602.311 781.245C602.503 781.403 603.002 781.109 603.228 780.793C603.98 779.769 605.035 779.007 606.244 778.615C607.453 778.224 608.754 778.222 609.965 778.61C610.882 778.61 611.199 777.196 610.599 776.506C610.257 776.2 609.854 775.97 609.417 775.83C608.98 775.689 608.519 775.642 608.062 775.692C607.148 775.797 606.223 775.644 605.39 775.251C604.929 774.952 604.572 774.517 604.369 774.006C604.166 773.496 604.127 772.935 604.258 772.401C603.681 775.126 602.968 777.829 602.22 780.544Z" fill="#8C81E6"/>
<g opacity="0.5">
<path d="M638.372 738.258C637.71 737.627 637.286 736.789 637.172 735.883C637.112 735.437 636.964 735.007 636.737 734.619C636.509 734.23 636.207 733.891 635.847 733.621C632.371 735.826 634.273 742.284 630.752 744.421C630.073 744.84 629.201 745.077 628.827 745.778C628.681 746.109 628.638 746.476 628.704 746.832C628.771 747.187 628.944 747.514 629.201 747.769C629.729 748.268 630.404 748.586 631.126 748.674C632.536 748.869 633.973 748.672 635.279 748.106C636.585 747.539 637.71 746.624 638.53 745.462C639.911 743.562 640.863 740.508 640.183 738.258C639.91 738.423 639.597 738.511 639.277 738.511C638.958 738.511 638.645 738.423 638.372 738.258Z" fill="white"/>
<path d="M602.22 780.544C602.22 780.781 602.118 781.087 602.311 781.245C602.503 781.403 603.002 781.109 603.228 780.793C603.98 779.769 605.035 779.007 606.244 778.615C607.453 778.224 608.754 778.222 609.965 778.61C610.882 778.61 611.199 777.196 610.599 776.506C610.257 776.2 609.854 775.97 609.417 775.83C608.98 775.689 608.519 775.642 608.062 775.692C607.148 775.797 606.223 775.644 605.39 775.251C604.929 774.952 604.572 774.517 604.369 774.006C604.166 773.496 604.127 772.935 604.258 772.401C603.681 775.126 602.968 777.829 602.22 780.544Z" fill="white"/>
</g>
<path d="M648.323 737.398C646.342 737.138 644.247 737.081 642.515 736.075C640.364 734.808 638.881 732.116 636.378 732.003C634.114 731.902 632.495 733.937 631.238 735.769C631.251 734.382 631.684 733.031 632.48 731.894C633.276 730.758 634.399 729.889 635.699 729.402C638.341 728.482 641.233 728.596 643.794 729.719C646.323 730.851 648.685 732.324 650.814 734.096C651.733 734.704 652.538 735.47 653.192 736.357C655.988 740.802 650.067 737.635 648.323 737.398Z" fill="#8C81E6"/>
<path opacity="0.5" d="M648.323 737.398C646.342 737.138 644.247 737.081 642.515 736.075C640.364 734.808 638.881 732.116 636.378 732.003C634.114 731.902 632.495 733.937 631.238 735.769C631.251 734.382 631.684 733.031 632.48 731.894C633.276 730.758 634.399 729.889 635.699 729.402C638.341 728.482 641.233 728.596 643.794 729.719C646.323 730.851 648.685 732.324 650.814 734.096C651.733 734.704 652.538 735.47 653.192 736.357C655.988 740.802 650.067 737.635 648.323 737.398Z" fill="white"/>
<path d="M612.908 801.625C613.042 801.379 613.163 801.126 613.27 800.867C613.15 800.952 613.054 801.066 612.99 801.199C612.927 801.331 612.899 801.478 612.908 801.625Z" fill="#8C81E6"/>
<path d="M616.271 784.106C616.045 781.324 616.441 778.519 616.328 775.726C616.214 772.932 615.478 769.992 613.441 768.069C610.519 765.321 602.515 766.723 605.198 771.948C605.59 772.661 606.225 773.21 606.988 773.494C607.75 773.779 608.59 773.78 609.353 773.498C609.718 773.326 610.044 773.084 610.314 772.784C610.583 772.485 610.79 772.135 610.922 771.754C611.053 771.374 611.108 770.971 611.082 770.569C611.055 770.168 610.949 769.775 610.769 769.415C612.342 771.905 613.119 774.814 612.996 777.756C612.872 780.698 611.855 783.532 610.078 785.882C612.112 787.732 613.514 790.173 614.087 792.862C614.659 795.55 614.374 798.349 613.271 800.867C613.546 800.679 613.871 800.578 614.205 800.578C614.538 800.578 614.864 800.679 615.139 800.867C615.835 801.578 616.331 802.459 616.577 803.423C616.973 804.339 617.709 805.289 618.705 805.221C620.064 801.885 619.622 798.096 618.705 794.613C617.788 791.129 616.554 787.737 616.271 784.106Z" fill="#8C81E6"/>
<path d="M645.56 731.664C644.003 730.457 642.157 729.678 640.205 729.402L645.56 731.664Z" fill="#8C81E6"/>
<path d="M658.875 767.052C658.445 765.129 657.551 763.342 657.018 761.397C655.784 756.975 656.566 752.247 655.999 747.69C655.229 741.737 652.221 736.299 647.587 732.478L645.561 731.619C647.523 733.104 648.953 735.183 649.636 737.545C651.21 742.951 651.697 748.583 652.399 754.17C653.463 762.804 655.032 771.369 657.098 779.82C658.445 775.658 659.815 771.293 658.875 767.052Z" fill="#8C81E6"/>
<path d="M637.319 746.943C638.677 745.753 639.531 744.091 639.708 742.295C639.865 740.705 639.823 739.102 639.584 737.522C639.466 737.888 639.22 738.198 638.891 738.395C638.562 738.593 638.173 738.665 637.795 738.597C636.864 738.236 636.102 737.543 635.655 736.652L635.247 738.065L635.077 737.296L634.534 737.986C635.338 740.248 636.119 742.883 634.874 744.953C634.202 745.91 633.334 746.712 632.326 747.305C633.092 747.773 633.985 747.989 634.881 747.924C635.776 747.859 636.629 747.516 637.319 746.943Z" fill="#8C81E6"/>
<path d="M639.516 736.957L639.584 737.522C639.622 737.331 639.599 737.133 639.516 736.957Z" fill="#8C81E6"/>
<path d="M633.594 759.847C629.631 752.055 625.669 744.263 621.287 736.685C618.843 732.191 615.944 727.958 612.637 724.053C611.12 722.368 606.795 718.454 604.406 721.033C602.809 722.752 604.904 725.874 602.945 727.74C603.398 727.74 605.606 727.525 605.844 727.819C610.843 734.029 613.528 741.78 613.441 749.748C615.037 748.493 617.234 750.234 618.479 751.84C626.164 761.687 633.344 771.916 639.991 782.489C638.7 777.818 638.666 772.853 637.285 768.216C636.309 765.322 635.073 762.521 633.594 759.847Z" fill="#8C81E6"/>
<path d="M679.721 778.836C681.745 773.846 682.942 768.559 683.264 763.184C683.481 758.216 682.246 753.292 679.709 749.013C679.052 747.961 676.313 743.618 674.852 743.969C672.191 744.602 675.679 749.216 676.29 750.37C678.554 754.724 680.943 759.327 680.819 764.247C680.706 768.036 679.109 771.598 677.83 775.16C676.862 777.638 676.322 780.261 676.233 782.919C676.041 783.213 675.86 783.518 675.645 783.79C673.955 786.197 671.414 787.874 668.534 788.483C669.667 785.09 670.719 781.697 671.818 778.305C672.214 777.094 672.35 775.443 671.648 774.606C671.882 774.152 672.002 773.647 671.999 773.136C671.843 772.217 671.517 771.334 671.036 770.535C669.519 767.278 670.029 763.489 670.402 759.915C670.855 755.505 671.025 750.969 669.734 746.728C668.444 742.487 665.443 738.552 661.232 737.149L662.364 738.28L660.937 737.24L663.587 742.759L662.613 744.15C664.073 743.381 665.942 744.489 666.61 745.993C667.133 747.563 667.246 749.241 666.938 750.868C666.085 760.03 666.534 769.268 668.274 778.305C668.216 780.415 667.657 782.481 666.644 784.333C666.094 785.333 665.268 786.153 664.264 786.697C663.261 787.241 662.121 787.484 660.983 787.397C661.233 786.289 661.16 785.132 660.772 784.064C660.385 782.996 659.7 782.061 658.797 781.369C656.533 784.536 657.869 789.456 658.209 793.063C658.736 798.528 659.617 803.953 660.847 809.304C661.204 804.672 662.175 800.109 663.734 795.733C664.957 800.196 666.187 804.663 667.425 809.134C667.365 807.878 667.606 806.626 668.127 805.481C668.402 804.918 668.862 804.466 669.432 804.203C670.001 803.939 670.644 803.879 671.252 804.034C671.702 804.279 672.1 804.611 672.42 805.011C672.741 805.411 672.979 805.871 673.12 806.363C676.325 814.103 677.114 822.63 675.384 830.826C676.901 831.674 678.917 830.656 679.766 829.141C680.466 827.541 680.743 825.789 680.57 824.052C680.26 808.995 679.977 793.923 679.721 778.836Z" fill="#8C81E6"/>
<path d="M641.337 783.62C640.613 784.887 643.602 789.931 644.066 791.13C646.557 797.214 649.051 803.302 651.55 809.394C650.72 801.366 648.769 793.494 645.753 786.006C645.243 784.751 642.775 781.098 641.337 783.62Z" fill="#8C81E6"/>
<path d="M645.21 751.365C644.78 752.01 644.179 752.802 643.444 752.575C642.708 752.349 642.628 751.444 642.64 750.732C642.715 746.502 642.787 742.269 642.855 738.031C639.458 740.485 639.866 743.686 639.628 747.35C639.492 749.465 640.104 759.565 638.654 760.797C642.046 757.906 644.898 754.437 647.078 750.551C646.489 750.065 645.629 750.721 645.21 751.365Z" fill="#8C81E6"/>
<g opacity="0.5">
<path d="M612.908 801.625C613.042 801.379 613.163 801.126 613.27 800.867C613.15 800.952 613.054 801.066 612.99 801.199C612.927 801.331 612.899 801.478 612.908 801.625Z" fill="white"/>
<path d="M616.271 784.106C616.045 781.324 616.441 778.519 616.328 775.726C616.214 772.932 615.478 769.992 613.441 768.069C610.519 765.321 602.515 766.723 605.198 771.948C605.59 772.661 606.225 773.21 606.988 773.494C607.75 773.779 608.59 773.78 609.353 773.498C609.718 773.326 610.044 773.084 610.314 772.784C610.583 772.485 610.79 772.135 610.922 771.754C611.053 771.374 611.108 770.971 611.082 770.569C611.055 770.168 610.949 769.775 610.769 769.415C612.342 771.905 613.119 774.814 612.996 777.756C612.872 780.698 611.855 783.532 610.078 785.882C612.112 787.732 613.514 790.173 614.087 792.862C614.659 795.55 614.374 798.349 613.271 800.867C613.546 800.679 613.871 800.578 614.205 800.578C614.538 800.578 614.864 800.679 615.139 800.867C615.835 801.578 616.331 802.459 616.577 803.423C616.973 804.339 617.709 805.289 618.705 805.221C620.064 801.885 619.622 798.096 618.705 794.613C617.788 791.129 616.554 787.737 616.271 784.106Z" fill="white"/>
<path d="M645.562 731.664C644.005 730.457 642.159 729.678 640.207 729.402L645.562 731.664Z" fill="white"/>
<path d="M658.875 767.052C658.445 765.129 657.551 763.342 657.018 761.397C655.784 756.975 656.566 752.247 655.999 747.69C655.229 741.737 652.221 736.299 647.587 732.478L645.561 731.619C647.523 733.104 648.953 735.183 649.636 737.545C651.21 742.951 651.697 748.583 652.399 754.17C653.463 762.804 655.032 771.369 657.098 779.82C658.445 775.658 659.815 771.293 658.875 767.052Z" fill="white"/>
<path d="M637.319 746.943C638.677 745.753 639.531 744.091 639.708 742.295C639.865 740.705 639.823 739.102 639.584 737.522C639.466 737.888 639.22 738.198 638.891 738.395C638.562 738.593 638.173 738.665 637.795 738.597C636.864 738.236 636.102 737.543 635.655 736.652L635.247 738.065L635.077 737.296L634.534 737.986C635.338 740.248 636.119 742.883 634.874 744.953C634.202 745.91 633.334 746.712 632.326 747.305C633.092 747.773 633.985 747.989 634.881 747.924C635.776 747.859 636.629 747.516 637.319 746.943Z" fill="white"/>
<path d="M639.516 736.957L639.584 737.522C639.622 737.331 639.599 737.133 639.516 736.957Z" fill="white"/>
<path d="M633.594 759.847C629.631 752.055 625.669 744.263 621.287 736.685C618.843 732.191 615.944 727.958 612.637 724.053C611.12 722.368 606.795 718.454 604.406 721.033C602.809 722.752 604.904 725.874 602.945 727.74C603.398 727.74 605.606 727.525 605.844 727.819C610.843 734.029 613.528 741.78 613.441 749.748C615.037 748.493 617.234 750.234 618.479 751.84C626.164 761.687 633.344 771.916 639.991 782.489C638.7 777.818 638.666 772.853 637.285 768.216C636.309 765.322 635.073 762.521 633.594 759.847Z" fill="white"/>
<path d="M679.721 778.836C681.745 773.846 682.942 768.559 683.264 763.184C683.481 758.216 682.246 753.292 679.709 749.013C679.052 747.961 676.313 743.618 674.852 743.969C672.191 744.602 675.679 749.216 676.29 750.37C678.554 754.724 680.943 759.327 680.819 764.247C680.706 768.036 679.109 771.598 677.83 775.16C676.862 777.638 676.322 780.261 676.233 782.919C676.041 783.213 675.86 783.518 675.645 783.79C673.955 786.197 671.414 787.874 668.534 788.483C669.667 785.09 670.719 781.697 671.818 778.305C672.214 777.094 672.35 775.443 671.648 774.606C671.882 774.152 672.002 773.647 671.999 773.136C671.843 772.217 671.517 771.334 671.036 770.535C669.519 767.278 670.029 763.489 670.402 759.915C670.855 755.505 671.025 750.969 669.734 746.728C668.444 742.487 665.443 738.552 661.232 737.149L662.364 738.28L660.937 737.24L663.587 742.759L662.613 744.15C664.073 743.381 665.942 744.489 666.61 745.993C667.133 747.563 667.246 749.241 666.938 750.868C666.085 760.03 666.534 769.268 668.274 778.305C668.216 780.415 667.657 782.481 666.644 784.333C666.094 785.333 665.268 786.153 664.264 786.697C663.261 787.241 662.121 787.484 660.983 787.397C661.233 786.289 661.16 785.132 660.772 784.064C660.385 782.996 659.7 782.061 658.797 781.369C656.533 784.536 657.869 789.456 658.209 793.063C658.736 798.528 659.617 803.953 660.847 809.304C661.204 804.672 662.175 800.109 663.734 795.733C664.957 800.196 666.187 804.663 667.425 809.134C667.365 807.878 667.606 806.626 668.127 805.481C668.402 804.918 668.862 804.466 669.432 804.203C670.001 803.939 670.644 803.879 671.252 804.034C671.702 804.279 672.1 804.611 672.42 805.011C672.741 805.411 672.979 805.871 673.12 806.363C676.325 814.103 677.114 822.63 675.384 830.826C676.901 831.674 678.917 830.656 679.766 829.141C680.466 827.541 680.743 825.789 680.57 824.052C680.26 808.995 679.977 793.923 679.721 778.836Z" fill="white"/>
<path d="M641.339 783.62C640.615 784.887 643.604 789.931 644.068 791.13C646.559 797.214 649.053 803.302 651.552 809.394C650.722 801.366 648.77 793.494 645.755 786.006C645.245 784.751 642.777 781.098 641.339 783.62Z" fill="white"/>
<path d="M645.21 751.365C644.78 752.01 644.179 752.802 643.444 752.575C642.708 752.349 642.628 751.444 642.64 750.732C642.715 746.502 642.787 742.269 642.855 738.031C639.458 740.485 639.866 743.686 639.628 747.35C639.492 749.465 640.104 759.565 638.654 760.797C642.046 757.906 644.898 754.437 647.078 750.551C646.489 750.065 645.629 750.721 645.21 751.365Z" fill="white"/>
</g>
</g>
<path d="M603.614 779.922C602.301 780.961 601.178 782.22 600.297 783.643L603.614 779.922Z" fill="white"/>
<path d="M650.646 882.838L638.826 845.675C627.73 834.264 607.351 823.825 605.585 808.015C603.32 787.725 600.184 788.551 600.184 783.507C601.397 781.016 602.441 778.447 603.309 775.816C603.836 773.807 604.214 771.762 604.441 769.698C604.587 768.671 605.116 767.737 605.922 767.082C606.728 766.428 607.752 766.102 608.789 766.169C610.234 766.261 611.614 766.798 612.74 767.707C614.75 769.561 615.967 772.117 616.137 774.844C616.288 777.543 616.086 780.249 615.537 782.896C617.616 787.264 619.076 791.9 619.873 796.671C620.835 792.871 621.503 789.06 622.454 785.26C622.703 785.113 622.59 784.819 622.817 784.66C620.869 781.132 622.319 781.268 618.412 773.407C611.834 760.243 604.622 747.61 598.95 730.895C598.483 729.339 598.409 727.691 598.735 726.1C600.059 721.135 605.143 721.915 607.521 724.607C608.143 725.316 608.658 726.112 609.049 726.971C612.495 734.029 616.576 740.759 621.243 747.079L634.829 764.982C634.829 764.982 638.883 761.193 639.437 759.576C639.97 757.959 639.437 745.224 639.437 745.224C639.437 745.224 638.622 747.667 636.46 747.667C634.897 747.667 631.795 748.798 629.372 746.4C628.43 745.435 627.848 744.177 627.722 742.835C627.596 741.494 627.935 740.149 628.681 739.027L633.742 731.11C634.899 730.069 636.32 729.367 637.85 729.08C639.38 728.793 640.959 728.932 642.415 729.481C646.135 731.046 649.606 733.146 652.718 735.713C655.657 735.454 658.617 735.84 661.391 736.844C665.467 738.484 669.962 743.629 669.962 743.629C669.962 743.629 674.57 743.63 676.755 744.953C677.298 745.292 685.043 755.742 683.073 764.405C681.94 769.574 681.476 776.993 680.933 779.006L680.797 829.005L690.149 862.142" stroke="#263238" stroke-miterlimit="10"/>
<path d="M653.918 737.511C655.912 744.888 656.947 752.49 656.998 760.13C656.933 761.41 657.071 762.693 657.405 763.93C657.582 764.546 657.913 765.107 658.366 765.56C658.82 766.013 659.381 766.344 659.998 766.52" stroke="#263238" stroke-miterlimit="10"/>
<path d="M669.893 744.941C673.289 752.021 669.813 767.843 670.062 768.952C670.168 769.515 670.393 770.048 670.723 770.517C671.053 770.985 671.481 771.377 671.976 771.666" stroke="#263238" stroke-miterlimit="10"/>
<path d="M640.704 736.55C640.308 738.812 639.979 741.402 639.572 743.652C638.252 742.521 637.172 741.138 636.394 739.584C635.616 738.031 635.157 736.338 635.043 734.604" stroke="#263238" stroke-miterlimit="10"/>
<path d="M619.012 796.886L616.555 797.915" stroke="#263238" stroke-miterlimit="10"/>
<path d="M619.635 798.843C619.244 800.73 619.244 802.678 619.635 804.565" stroke="#263238" stroke-miterlimit="10"/>
<path d="M633.945 777.717C634.851 779.334 635.746 780.962 636.651 782.591" stroke="#263238" stroke-miterlimit="10"/>
<path d="M639.199 759.87L641.894 756.07" stroke="#263238" stroke-miterlimit="10"/>
<path d="M677.048 777.717L676.232 780.691" stroke="#263238" stroke-miterlimit="10"/>
<path d="M670.459 769.562C671.214 767.029 672.01 764.496 672.848 761.962" stroke="#263238" stroke-miterlimit="10"/>
<path d="M678.43 756.07C679.147 755.698 679.982 755.624 680.753 755.863C681.525 756.102 682.171 756.636 682.551 757.348" stroke="#263238" stroke-miterlimit="10"/>
<path d="M662.16 743.098C663.1 742.836 664.09 742.812 665.041 743.029C665.992 743.246 666.874 743.698 667.606 744.342" stroke="#263238" stroke-miterlimit="10"/>
<path d="M611.732 750.642C612.611 749.679 613.705 748.938 614.925 748.478C616.145 748.018 617.456 747.853 618.752 747.995" stroke="#263238" stroke-miterlimit="10"/>
<path d="M601.508 729.312C602.317 728.728 603.234 728.31 604.205 728.081C605.177 727.852 606.184 727.817 607.169 727.977" stroke="#263238" stroke-miterlimit="10"/>
<path d="M603.614 779.922C602.301 780.961 601.178 782.22 600.297 783.643" stroke="#263238" stroke-miterlimit="10"/>
<path d="M604.701 774.787C606.49 773.509 609.343 776.359 610.985 774.9C611.276 774.573 611.479 774.177 611.576 773.75C611.673 773.323 611.661 772.878 611.54 772.458C611.297 771.616 611.186 770.743 611.211 769.868" stroke="#263238" stroke-miterlimit="10"/>
<path d="M655.186 766.938C657.363 771.456 657.807 776.615 656.431 781.437" stroke="#263238" stroke-miterlimit="10"/>
<path d="M668.341 773.917C668.692 776.058 668.292 778.255 667.209 780.137" stroke="#263238" stroke-miterlimit="10"/>
<path opacity="0.2" d="M558.869 790.892C558.971 791.676 558.937 792.472 558.767 793.244C558.031 796.637 555.903 806.567 555.121 811.996C554.193 818.623 543.471 839.139 543.471 839.139C543.471 839.139 533.598 851.398 528.571 857.777C526.103 860.909 522.197 873.61 518.879 885.666C514.69 884.399 510.539 883.035 506.425 881.572C503.029 880.362 499.632 879.084 496.235 877.761C490.176 875.246 484.271 872.376 478.55 869.165C480.43 862.38 481.687 857.098 481.664 856.793C481.607 856.08 485.695 848.22 485.695 848.22L482.128 801.308L480.022 794.172C478.928 790.487 478.233 786.696 477.95 782.862C477.508 777.042 478.001 771.189 479.411 765.525L485.559 756.409L488.435 756.194L497.334 743.754C497.334 743.754 502.146 742.306 503.38 745.925C504.614 749.545 499.372 756.308 499.372 756.308L497.571 767.47L501.851 777.92L504.116 778.734C504.116 778.734 504.863 760.334 504.353 756.658L508.995 739.931C510.387 737.192 511.62 734.375 512.686 731.494C513.547 728.678 518.608 725.84 521.518 730.827C522.011 731.732 522.307 732.731 522.385 733.759C522.463 734.786 522.322 735.819 521.97 736.787C520.782 740.237 519.797 742.951 519.797 742.951C519.797 742.951 518.664 757.178 518.381 757.574C518.098 757.97 520.476 778.757 520.476 778.757L522.333 779.583L522.989 759.734L526.85 741.085C526.85 741.085 526.533 732.117 532.862 733.168C533.839 733.131 534.804 733.387 535.633 733.903C536.463 734.42 537.118 735.172 537.516 736.064C539.203 739.287 537.595 760.752 537.595 760.752L539.157 782.942L541.659 800.053L544.603 788.325C544.603 788.325 544.773 771.519 555.393 770.083C555.393 770.083 558.552 769.517 559.197 771.711C559.843 773.905 557.623 778.384 557.941 782.681C558.224 785.735 558.654 789.139 558.869 790.892Z" fill="black"/>
<path d="M555.642 770.116C555.155 767.855 551.973 768.205 551.973 768.205C541.274 768.838 539.836 785.588 539.836 785.588L535.998 797.056L534.866 779.797L534.979 757.552C534.979 757.552 538.217 736.267 536.779 732.931C536.451 732.011 535.853 731.21 535.064 730.633C534.274 730.057 533.33 729.73 532.352 729.696C526.125 728.135 525.763 737.104 525.763 737.104L520.509 755.403L518.347 775.138L516.558 774.188C516.558 774.188 515.709 753.243 516.071 752.892C516.433 752.541 518.585 738.427 518.585 738.427C518.585 738.427 519.773 735.792 521.223 732.444C521.647 731.504 521.867 730.485 521.867 729.453C521.867 728.422 521.647 727.402 521.223 726.462C518.698 721.327 513.444 723.725 512.357 726.462C511.081 729.253 509.645 731.968 508.055 734.593L502.054 750.981C502.281 754.69 500.152 772.989 500.152 772.989L497.99 772.005L494.514 761.261L497.163 750.257C497.163 750.257 502.903 743.924 501.941 740.214C500.979 736.505 496.076 737.59 496.076 737.59L486.215 749.284H483.328L476.534 757.891C473.474 767.116 472.935 776.99 474.972 786.493L476.534 793.765V840.767C476.534 840.767 471.87 848.299 471.87 849.012C471.87 849.34 469.945 855.277 467.262 862.685C479.003 869.584 489.113 874.922 496.28 877.738C499.677 879.072 503.073 880.339 506.47 881.549C510.772 869.482 515.799 856.578 518.573 853.558C524.076 847.587 534.854 836.096 534.854 836.096C534.854 836.096 547.093 816.452 548.531 809.926C549.663 804.565 552.585 794.828 553.581 791.491C553.813 790.734 553.905 789.941 553.853 789.15C553.773 787.386 553.604 783.959 553.604 780.94C553.558 776.653 556.117 772.344 555.642 770.116Z" fill="white"/>
<mask id="mask1_493_1251" style="mask-type:luminance" maskUnits="userSpaceOnUse" x="467" y="723" width="89" height="159">
<path d="M555.642 770.116C555.155 767.855 551.973 768.205 551.973 768.205C541.274 768.838 539.836 785.588 539.836 785.588L535.998 797.056L534.866 779.797L534.979 757.552C534.979 757.552 538.217 736.267 536.779 732.931C536.451 732.011 535.853 731.21 535.064 730.633C534.274 730.057 533.33 729.73 532.352 729.696C526.125 728.135 525.763 737.104 525.763 737.104L520.509 755.403L518.347 775.138L516.558 774.188C516.558 774.188 515.709 753.243 516.071 752.892C516.433 752.541 518.585 738.427 518.585 738.427C518.585 738.427 519.773 735.792 521.223 732.444C521.647 731.504 521.867 730.485 521.867 729.453C521.867 728.422 521.647 727.402 521.223 726.462C518.698 721.327 513.444 723.725 512.357 726.462C511.081 729.253 509.645 731.968 508.055 734.593L502.054 750.981C502.281 754.69 500.152 772.989 500.152 772.989L497.99 772.005L494.514 761.261L497.163 750.257C497.163 750.257 502.903 743.924 501.941 740.214C500.979 736.505 496.076 737.59 496.076 737.59L486.215 749.284H483.328L476.534 757.891C473.474 767.116 472.935 776.99 474.972 786.493L476.534 793.765V840.767C476.534 840.767 471.87 848.299 471.87 849.012C471.87 849.34 469.945 855.277 467.262 862.685C479.003 869.584 489.113 874.922 496.28 877.738C499.677 879.072 503.073 880.339 506.47 881.549C510.772 869.482 515.799 856.578 518.573 853.558C524.076 847.587 534.854 836.096 534.854 836.096C534.854 836.096 547.093 816.452 548.531 809.926C549.663 804.565 552.585 794.828 553.581 791.491C553.813 790.734 553.905 789.941 553.853 789.15C553.773 787.386 553.604 783.959 553.604 780.94C553.558 776.653 556.117 772.344 555.642 770.116Z" fill="white"/>
</mask>
<g mask="url(#mask1_493_1251)">
<path d="M482.162 765.389C483.996 763.127 487.755 762.234 489.883 764.258C490.982 765.529 491.658 767.11 491.819 768.782C491.973 770.457 492.562 772.064 493.529 773.441C494.661 774.719 496.801 775.217 497.944 773.996C498.103 776.472 498.25 778.949 498.409 781.426C501.055 776.811 502.4 771.566 502.303 766.249C502.303 763.681 501.862 761.069 502.462 758.558C503.062 756.047 504.998 753.627 507.579 753.503C510.433 753.378 512.686 756.149 513.241 758.954C513.795 761.759 513.15 764.609 512.98 767.481C512.713 771.846 513.554 776.207 515.426 780.159L517.226 776.518C517.769 778.96 518.358 781.392 518.845 783.824C519.313 778.463 519.781 773.106 520.249 767.753C520.288 766.233 520.622 764.734 521.234 763.342C521.555 762.653 522.069 762.073 522.714 761.671C523.36 761.269 524.108 761.064 524.868 761.08C526.906 761.284 528.084 763.455 528.763 765.378C533.869 779.797 531.763 795.619 529.601 810.752C531.016 811.012 532.216 809.621 532.567 808.184C532.727 806.759 532.981 805.346 533.326 803.954C533.858 802.609 535.488 801.512 536.722 802.281C538.511 803.412 537.266 806.872 539.134 807.834C539.726 803.334 541.495 799.071 544.263 795.472C545.52 793.844 547.399 792.226 549.392 792.747C550.116 792.999 550.753 793.452 551.228 794.053C551.703 794.654 551.997 795.378 552.075 796.14C552.29 797.655 554.487 791.39 554.102 792.871C554.962 784.152 553.241 783.235 554.102 774.504C554.26 772.932 556.808 770.207 555.721 769.053C554.634 767.9 551.611 766.339 550.241 766.972C548.871 767.606 544.433 769.822 543.55 771.032C537.979 778.712 538.364 789.818 536.632 799.137C535.149 784.932 533.688 770.49 536.292 756.454C537.73 748.707 540.379 740.621 537.877 733.168C536.745 729.775 533.699 726.382 530.156 726.993C527.302 727.513 525.627 730.386 524.415 733.055C520.521 741.99 518.754 751.693 517.079 761.329L523.442 732.32C524.159 729.847 524.382 727.257 524.098 724.697C523.634 722.164 521.902 719.687 519.388 719.156C516.875 718.624 514.407 720.106 512.527 721.825C505.734 727.977 503.288 737.364 501.092 746.208C502.023 743.947 502.47 741.516 502.405 739.072C502.168 736.652 500.628 734.186 498.25 733.654C495.159 732.987 492.363 735.735 491.004 738.574C489.645 741.413 488.989 744.704 486.826 747C485.252 745.235 482.297 745.337 480.327 746.649C478.44 748.104 477.007 750.065 476.195 752.304C472.645 760.284 471.139 769.021 471.813 777.728C472.631 775.998 473.961 774.563 475.625 773.616C477.288 772.669 479.203 772.256 481.109 772.435C480.882 770.512 480.667 768.59 480.441 766.656" fill="#8C81E6"/>
<path d="M489.622 783.79C489.521 785.215 489.43 786.64 489.328 788.065C489.455 787.781 489.645 787.529 489.883 787.329C490.122 787.129 490.402 786.986 490.704 786.91C491.006 786.833 491.321 786.827 491.626 786.889C491.931 786.952 492.217 787.083 492.464 787.273C492.433 786.339 492.681 785.418 493.178 784.626C493.54 783.767 493.574 782.545 492.736 782.138C491.898 781.731 490.766 782.794 490.234 783.767C490.234 783.416 490.155 783.066 490.109 782.704L489.622 783.79Z" fill="#8C81E6"/>
<path d="M505.858 781.234C504.696 782.58 503.914 784.212 503.594 785.961C504.055 785.44 504.622 785.023 505.258 784.74C505.578 784.609 505.93 784.58 506.266 784.657C506.602 784.734 506.907 784.913 507.138 785.169C507.387 785.509 507.477 786.006 507.862 786.198C508.068 786.283 508.298 786.289 508.507 786.213C508.716 786.138 508.89 785.988 508.994 785.791C509.192 785.407 509.289 784.979 509.277 784.547C509.38 783.728 509.334 782.896 509.142 782.093C509.041 781.692 508.838 781.323 508.552 781.024C508.267 780.724 507.908 780.504 507.511 780.385C507.312 780.341 507.106 780.339 506.905 780.379C506.705 780.419 506.516 780.5 506.348 780.617C506.181 780.734 506.04 780.884 505.934 781.058C505.829 781.233 505.76 781.427 505.734 781.629L505.858 781.234Z" fill="#8C81E6"/>
<path d="M521.585 785.124C520.347 786.79 519.531 788.73 519.207 790.779C520.033 790.579 520.793 790.17 521.415 789.591C522.041 789 522.829 788.606 523.679 788.461C523.885 788.435 524.094 788.451 524.294 788.507C524.494 788.563 524.681 788.657 524.844 788.786C525.007 788.914 525.143 789.073 525.245 789.254C525.346 789.435 525.41 789.634 525.434 789.84C525.334 788.883 525.365 787.917 525.525 786.968C525.686 786.015 525.616 785.038 525.321 784.118C525.16 783.662 524.866 783.265 524.476 782.979C524.086 782.692 523.619 782.53 523.136 782.512C522.899 782.525 522.669 782.594 522.464 782.713C522.259 782.831 522.085 782.996 521.955 783.194C521.825 783.392 521.743 783.617 521.716 783.852C521.69 784.087 521.718 784.325 521.8 784.547L521.585 785.124Z" fill="#8C81E6"/>
<path d="M478.323 790.802C477.452 792.438 476.997 794.264 476.998 796.117C477.043 795.693 477.233 795.296 477.536 794.996C477.839 794.695 478.237 794.508 478.662 794.466C479.517 794.396 480.369 794.624 481.074 795.11C481.301 794.263 481.355 793.378 481.232 792.509C481.16 792.081 480.966 791.683 480.672 791.362C480.379 791.041 480 790.811 479.579 790.7C478.708 790.564 477.757 791.39 477.994 792.227L477.734 791.582L478.323 790.802Z" fill="#8C81E6"/>
<path opacity="0.5" d="M482.162 765.389C483.996 763.127 487.755 762.234 489.883 764.258C490.982 765.529 491.658 767.11 491.819 768.782C491.973 770.457 492.562 772.064 493.529 773.441C494.661 774.719 496.801 775.217 497.944 773.996C498.103 776.472 498.25 778.949 498.409 781.426C501.055 776.811 502.4 771.566 502.303 766.249C502.303 763.681 501.862 761.069 502.462 758.558C503.062 756.047 504.998 753.627 507.579 753.503C510.433 753.378 512.686 756.149 513.241 758.954C513.795 761.759 513.15 764.609 512.98 767.481C512.713 771.846 513.554 776.207 515.426 780.159L517.226 776.518C517.769 778.96 518.358 781.392 518.845 783.824C519.313 778.463 519.781 773.106 520.249 767.753C520.288 766.233 520.622 764.734 521.234 763.342C521.555 762.653 522.069 762.073 522.714 761.671C523.36 761.269 524.108 761.064 524.868 761.08C526.906 761.284 528.084 763.455 528.763 765.378C533.869 779.797 531.763 795.619 529.601 810.752C531.016 811.012 532.216 809.621 532.567 808.184C532.727 806.759 532.981 805.346 533.326 803.954C533.858 802.609 535.488 801.512 536.722 802.281C538.511 803.412 537.266 806.872 539.134 807.834C539.726 803.334 541.495 799.071 544.263 795.472C545.52 793.844 547.399 792.226 549.392 792.747C550.116 792.999 550.753 793.452 551.228 794.053C551.703 794.654 551.997 795.378 552.075 796.14C552.29 797.655 554.487 791.39 554.102 792.871C554.962 784.152 553.241 783.235 554.102 774.504C554.26 772.932 556.808 770.207 555.721 769.053C554.634 767.9 551.611 766.339 550.241 766.972C548.871 767.606 544.433 769.822 543.55 771.032C537.979 778.712 538.364 789.818 536.632 799.137C535.149 784.932 533.688 770.49 536.292 756.454C537.73 748.707 540.379 740.621 537.877 733.168C536.745 729.775 533.699 726.382 530.156 726.993C527.302 727.513 525.627 730.386 524.415 733.055C520.521 741.99 518.754 751.693 517.079 761.329L523.442 732.32C524.159 729.847 524.382 727.257 524.098 724.697C523.634 722.164 521.902 719.687 519.388 719.156C516.875 718.624 514.407 720.106 512.527 721.825C505.734 727.977 503.288 737.364 501.092 746.208C502.023 743.947 502.47 741.516 502.405 739.072C502.168 736.652 500.628 734.186 498.25 733.654C495.159 732.987 492.363 735.735 491.004 738.574C489.645 741.413 488.989 744.704 486.826 747C485.252 745.235 482.297 745.337 480.327 746.649C478.44 748.104 477.007 750.065 476.195 752.304C472.645 760.284 471.139 769.021 471.813 777.728C472.631 775.998 473.961 774.563 475.625 773.616C477.288 772.669 479.203 772.256 481.109 772.435C480.882 770.512 480.667 768.59 480.441 766.656" fill="white"/>
<g opacity="0.5">
<path d="M489.622 783.79C489.521 785.215 489.43 786.64 489.328 788.065C489.455 787.781 489.645 787.529 489.883 787.329C490.122 787.129 490.402 786.986 490.704 786.91C491.006 786.833 491.321 786.827 491.626 786.889C491.931 786.952 492.217 787.083 492.464 787.273C492.433 786.339 492.681 785.418 493.178 784.626C493.54 783.767 493.574 782.545 492.736 782.138C491.898 781.731 490.766 782.794 490.234 783.767C490.234 783.416 490.155 783.066 490.109 782.704L489.622 783.79Z" fill="white"/>
<path d="M505.858 781.234C504.696 782.58 503.914 784.212 503.594 785.961C504.055 785.44 504.622 785.023 505.258 784.74C505.578 784.609 505.93 784.58 506.266 784.657C506.602 784.734 506.907 784.913 507.138 785.169C507.387 785.509 507.477 786.006 507.862 786.198C508.068 786.283 508.298 786.289 508.507 786.213C508.716 786.138 508.89 785.988 508.994 785.791C509.192 785.407 509.289 784.979 509.277 784.547C509.38 783.728 509.334 782.896 509.142 782.093C509.041 781.692 508.838 781.323 508.552 781.024C508.267 780.724 507.908 780.504 507.511 780.385C507.312 780.341 507.106 780.339 506.905 780.379C506.705 780.419 506.516 780.5 506.348 780.617C506.181 780.734 506.04 780.884 505.934 781.058C505.829 781.233 505.76 781.427 505.734 781.629L505.858 781.234Z" fill="white"/>
<path d="M521.585 785.124C520.347 786.79 519.531 788.73 519.207 790.779C520.033 790.578 520.793 790.169 521.415 789.591C522.041 788.999 522.829 788.606 523.679 788.46C523.885 788.435 524.094 788.451 524.294 788.507C524.494 788.562 524.681 788.657 524.844 788.785C525.007 788.914 525.143 789.073 525.245 789.254C525.346 789.435 525.41 789.634 525.434 789.84C525.334 788.883 525.365 787.916 525.525 786.967C525.686 786.015 525.616 785.038 525.321 784.117C525.16 783.662 524.866 783.265 524.476 782.978C524.086 782.692 523.619 782.529 523.136 782.511C522.899 782.525 522.669 782.594 522.464 782.712C522.259 782.831 522.085 782.996 521.955 783.194C521.825 783.391 521.743 783.617 521.716 783.852C521.69 784.087 521.718 784.325 521.8 784.547L521.585 785.124Z" fill="white"/>
<path d="M478.323 790.801C477.452 792.438 476.997 794.263 476.998 796.117C477.043 795.692 477.233 795.296 477.536 794.995C477.839 794.695 478.237 794.508 478.662 794.466C479.517 794.396 480.369 794.624 481.074 795.11C481.301 794.263 481.355 793.378 481.232 792.509C481.16 792.081 480.966 791.682 480.672 791.361C480.379 791.041 480 790.811 479.579 790.7C478.708 790.564 477.757 791.389 477.994 792.226L477.734 791.582L478.323 790.801Z" fill="white"/>
</g>
</g>
<path d="M467.229 862.708C469.912 855.3 471.837 849.362 471.837 849.034C471.837 848.322 476.501 840.79 476.501 840.79V793.787L474.939 786.515C472.902 777.012 473.441 767.139 476.501 757.913L483.294 749.307H486.182L495.986 737.59C495.986 737.59 500.9 736.459 501.851 740.214C502.802 743.969 497.073 750.257 497.073 750.257L494.424 761.261L497.9 772.005L500.062 772.989C500.062 772.989 502.191 754.69 501.965 750.981L507.965 734.593C509.555 731.968 510.992 729.253 512.268 726.462C513.4 723.725 518.608 721.327 521.133 726.462C521.558 727.402 521.777 728.422 521.777 729.453C521.777 730.485 521.558 731.504 521.133 732.444C519.684 735.837 518.495 738.427 518.495 738.427C518.495 738.427 516.343 752.53 515.981 752.892C515.619 753.254 516.468 774.188 516.468 774.188L518.257 775.138L520.419 755.403L525.673 737.104C525.673 737.104 526.035 728.135 532.262 729.696C533.24 729.73 534.184 730.057 534.974 730.633C535.763 731.21 536.361 732.011 536.689 732.931C538.127 736.267 534.889 757.552 534.889 757.552L534.81 779.82L535.942 797.078L539.78 785.61C539.78 785.61 541.218 768.861 551.917 768.228C551.917 768.228 555.099 767.9 555.586 770.139C556.073 772.378 553.502 776.676 553.502 780.985C553.502 784.005 553.672 787.431 553.752 789.196C553.804 789.986 553.712 790.779 553.48 791.537C552.483 794.93 549.608 804.611 548.43 809.971C546.992 816.497 534.753 836.141 534.753 836.141C534.753 836.141 523.975 847.632 518.472 853.603C515.698 856.623 510.671 869.527 506.369 881.594" stroke="#263238" stroke-miterlimit="10"/>
<path d="M499.938 774.753C500.246 775.875 500.259 777.058 499.978 778.187C499.696 779.316 499.129 780.353 498.33 781.2" fill="white"/>
<path d="M499.938 774.753C500.246 775.875 500.259 777.058 499.978 778.187C499.696 779.316 499.129 780.353 498.33 781.2" stroke="#263238" stroke-miterlimit="10"/>
<path d="M481.641 790.564C483.192 788.166 484.709 784.853 484.29 782.025C483.475 776.472 480.893 770.082 482.026 764.586C482.75 761.08 483.475 757.563 484.211 754.057" fill="white"/>
<path d="M481.641 790.564C483.192 788.166 484.709 784.853 484.29 782.025C483.475 776.472 480.893 770.082 482.026 764.586C482.75 761.08 483.475 757.563 484.211 754.057" stroke="#263238" stroke-miterlimit="10"/>
<path d="M526.783 738.11C528.639 737.622 530.589 737.622 532.444 738.11C532.444 737.579 532.444 737.059 532.501 736.527" stroke="#263238" stroke-miterlimit="10"/>
<path d="M511.916 731.053C512.463 731.425 513.1 731.64 513.76 731.675C514.42 731.71 515.078 731.565 515.661 731.254C516.244 730.943 516.731 730.478 517.068 729.911C517.406 729.343 517.582 728.694 517.577 728.034" stroke="#263238" stroke-miterlimit="10"/>
<path d="M552.834 770.309C551.269 770.711 549.893 771.646 548.945 772.953C547.996 774.26 547.534 775.857 547.637 777.468L550.411 778.305" stroke="#263238" stroke-miterlimit="10"/>
<path d="M516.401 771.688C516.525 773.588 516.287 778.124 516.401 780.024V771.688Z" fill="white"/>
<path d="M516.401 771.688C516.525 773.588 516.287 778.124 516.401 780.024" stroke="#263238" stroke-miterlimit="10"/>
<path d="M518.484 774.324C518.257 777.423 518.027 780.529 517.793 783.643C517.793 783.247 517.793 782.851 517.793 782.455" fill="white"/>
<path d="M518.484 774.324C518.257 777.423 518.027 780.529 517.793 783.643C517.793 783.247 517.793 782.851 517.793 782.455" stroke="#263238" stroke-miterlimit="10"/>
<path d="M535.762 800.528C536.583 803.965 536.208 807.579 534.697 810.774L535.762 800.528Z" fill="white"/>
<path d="M535.762 800.528C536.583 803.965 536.208 807.579 534.697 810.774" stroke="#263238" stroke-miterlimit="10"/>
<path d="M507.059 784.231C504.591 786.934 504.954 793.425 506.697 796.988" stroke="#263238" stroke-miterlimit="10"/>
<path d="M525.298 788.698C525.315 791.733 524.242 794.674 522.275 796.988" stroke="#263238" stroke-miterlimit="10"/>
<path d="M489.08 785.475C488.668 788.231 489.267 791.042 490.767 793.392" stroke="#263238" stroke-miterlimit="10"/>
<path d="M478.573 793.968C478.463 796.119 479.077 798.245 480.317 800.008" stroke="#263238" stroke-miterlimit="10"/>
<path d="M492.975 741.831C493.623 741.531 494.347 741.43 495.053 741.543C495.759 741.656 496.415 741.977 496.937 742.465L498.33 740.621" stroke="#263238" stroke-miterlimit="10"/>
<path d="M504.592 750.133C505.549 749.567 506.675 749.359 507.771 749.543C508.867 749.727 509.862 750.292 510.581 751.139" stroke="#263238" stroke-miterlimit="10"/>
<path d="M522.729 755.787C523.746 755.336 524.851 755.114 525.965 755.138C527.078 755.161 528.173 755.429 529.171 755.923" stroke="#263238" stroke-miterlimit="10"/>
<path d="M482.365 765.276C482.968 764.269 483.848 763.457 484.899 762.936C485.951 762.414 487.131 762.206 488.298 762.335" stroke="#263238" stroke-miterlimit="10"/>
<path d="M474.77 776.088C474.806 775.356 475.092 774.658 475.58 774.111C476.068 773.564 476.729 773.2 477.453 773.08" stroke="#263238" stroke-miterlimit="10"/>
</g>
<g opacity="0.5">
<g opacity="0.7">
<path d="M1067.32 74H1032.3C1030.11 73.9999 1028.01 74.8628 1026.46 76.4012C1024.91 77.9396 1024.02 80.0292 1024 82.2157V99.2611C1024 101.462 1024.87 103.573 1026.43 105.129C1027.99 106.686 1030.1 107.56 1032.3 107.56H1041.46L1048.38 123.277L1058.16 107.56H1067.32C1069.52 107.56 1071.63 106.686 1073.19 105.129C1074.74 103.573 1075.62 101.462 1075.62 99.2611V82.2157C1075.6 80.0292 1074.71 77.9396 1073.16 76.4012C1071.6 74.8628 1069.51 73.9999 1067.32 74Z" fill="white" stroke="#263238" stroke-linecap="round" stroke-linejoin="round"/>
<path d="M1040.33 86.6141V87.2946H1043.45V89.4356H1040.4V98.5973H1037.74V89.4356H1035.87V87.2946H1037.74V86.5809C1037.7 86.0428 1037.78 85.5022 1037.97 84.9972C1038.16 84.4923 1038.46 84.0352 1038.84 83.6584C1039.23 83.2816 1039.69 82.9943 1040.2 82.8167C1040.71 82.6391 1041.26 82.5756 1041.79 82.6307C1042.64 82.5891 1043.48 82.8031 1044.2 83.2448L1043.45 85.2531C1043.02 84.9524 1042.51 84.7902 1041.99 84.7883C1040.91 84.7883 1040.33 85.4024 1040.33 86.6141Z" fill="#263238"/>
<path d="M1044.15 92.9044C1044.1 91.6934 1044.42 90.4963 1045.06 89.4668C1045.7 88.4374 1046.63 87.6227 1047.74 87.1276C1048.84 86.6324 1050.07 86.4795 1051.27 86.6883C1052.46 86.8971 1053.56 87.4582 1054.44 88.2995C1055.31 89.1407 1055.91 90.2236 1056.16 91.409C1056.41 92.5944 1056.3 93.8281 1055.85 94.9514C1055.4 96.0747 1054.61 97.0363 1053.61 97.7127C1052.6 98.389 1051.42 98.7491 1050.21 98.7467C1049.42 98.7902 1048.63 98.6705 1047.89 98.3952C1047.15 98.1198 1046.47 97.6947 1045.9 97.1463C1045.34 96.598 1044.89 95.9383 1044.58 95.2084C1044.28 94.4785 1044.13 93.6941 1044.15 92.9044ZM1053.59 92.9044C1053.54 92.2607 1053.31 91.6451 1052.92 91.1329C1052.52 90.6207 1051.99 90.2342 1051.38 90.0207C1050.77 89.8072 1050.11 89.776 1049.49 89.9308C1048.86 90.0856 1048.29 90.4198 1047.85 90.8925C1047.41 91.3651 1047.12 91.9557 1047.01 92.5919C1046.9 93.2281 1046.98 93.8824 1047.24 94.4746C1047.49 95.0668 1047.92 95.5712 1048.46 95.9261C1049 96.281 1049.63 96.471 1050.27 96.4728C1050.73 96.4741 1051.18 96.3807 1051.6 96.1986C1052.02 96.0164 1052.4 95.7494 1052.71 95.4143C1053.02 95.0792 1053.26 94.6832 1053.42 94.2513C1053.57 93.8193 1053.63 93.3608 1053.59 92.9044Z" fill="#263238"/>
<path d="M1065.41 87.0787V89.6181C1065.21 89.6035 1065 89.6035 1064.8 89.6181C1064.33 89.5815 1063.87 89.6491 1063.44 89.8159C1063 89.9828 1062.61 90.2447 1062.29 90.5823C1061.98 90.9199 1061.74 91.3247 1061.6 91.7667C1061.45 92.2088 1061.41 92.677 1061.48 93.1367V98.6636H1058.8V87.2779H1061.34V88.9376C1061.8 88.3001 1062.42 87.7932 1063.13 87.4671C1063.84 87.141 1064.63 87.0071 1065.41 87.0787Z" fill="#263238"/>
</g>
<path d="M1008.32 1H973.299C971.098 1 968.987 1.87431 967.431 3.43062C965.874 4.98692 965 7.09772 965 9.29867V26.3275C965 28.5285 965.874 30.6393 967.431 32.1956C968.987 33.7519 971.098 34.6262 973.299 34.6262H982.46L989.398 50.3439L999.174 34.6262H1008.32C1010.52 34.6262 1012.63 33.7519 1014.19 32.1956C1015.74 30.6393 1016.62 28.5285 1016.62 26.3275V9.23229C1016.6 7.04287 1015.72 4.94909 1014.16 3.40711C1012.61 1.86514 1010.51 0.99993 1008.32 1Z" fill="white" stroke="#263238" stroke-linecap="round" stroke-linejoin="round"/>
<path d="M983.689 17.9956C984.535 18.2612 984.95 18.8421 984.95 20.1699V24.2196C984.909 24.4467 984.923 24.6803 984.992 24.9006C985.061 25.1209 985.182 25.3211 985.345 25.4843C985.508 25.6475 985.709 25.7687 985.929 25.8375C986.149 25.9063 986.383 25.9207 986.61 25.8794H987.058V28.0204H985.979C985.499 28.092 985.009 28.0524 984.547 27.9046C984.084 27.7568 983.662 27.5048 983.312 27.1681C982.963 26.8313 982.695 26.4188 982.53 25.9623C982.365 25.5057 982.307 25.0174 982.361 24.535V20.1533C982.361 19.4396 981.996 19.1242 981.398 19.1242H980.701V16.95H981.398C981.996 16.95 982.361 16.6347 982.361 15.921V11.5393C982.307 11.0568 982.365 10.5685 982.53 10.112C982.695 9.65548 982.963 9.24292 983.312 8.90616C983.662 8.5694 984.084 8.31742 984.547 8.16964C985.009 8.02186 985.499 7.98224 985.979 8.05383H987.058V10.1949H986.61C986.383 10.1536 986.149 10.168 985.929 10.2368C985.709 10.3056 985.508 10.4268 985.345 10.5899C985.182 10.7531 985.061 10.9534 984.992 11.1737C984.923 11.3939 984.909 11.6276 984.95 11.8546V15.9044C984.95 17.1326 984.535 17.7135 983.689 17.9956Z" fill="#263238"/>
<path d="M999.954 16.9003V19.0247H999.224C998.643 19.0247 998.278 19.3401 998.278 20.0538V24.4355C998.332 24.9195 998.274 25.4095 998.108 25.8675C997.942 26.3255 997.673 26.739 997.322 27.0762C996.97 27.4133 996.546 27.6649 996.081 27.8114C995.617 27.9579 995.125 27.9953 994.643 27.9209H993.564V25.8297H994.013C994.239 25.867 994.471 25.8498 994.689 25.7796C994.908 25.7094 995.106 25.5882 995.269 25.426C995.431 25.2637 995.552 25.0652 995.622 24.8468C995.693 24.6283 995.71 24.3963 995.672 24.1699V20.1202C995.672 18.7924 996.054 18.2115 996.9 17.9459C996.054 17.6638 995.672 17.0829 995.672 15.7551V11.7053C995.71 11.4789 995.693 11.2469 995.622 11.0285C995.552 10.8101 995.431 10.6115 995.269 10.4493C995.106 10.287 994.908 10.1658 994.689 10.0956C994.471 10.0254 994.239 10.0082 994.013 10.0456H993.564V7.90454H994.643C995.125 7.83011 995.617 7.8676 996.081 8.0141C996.546 8.1606 996.97 8.41216 997.322 8.74927C997.673 9.08638 997.942 9.49997 998.108 9.95793C998.274 10.4159 998.332 10.9059 998.278 11.39V15.7717C998.278 16.4853 998.643 16.8007 999.224 16.8007L999.954 16.9003Z" fill="#263238"/>
<g opacity="0.3">
<path d="M1143.32 25H1108.3C1106.1 25 1103.99 25.8743 1102.43 27.4306C1100.88 28.9869 1100 31.0977 1100 33.2987V50.3275C1100 52.5285 1100.88 54.6393 1102.43 56.1956C1103.99 57.7519 1106.1 58.6262 1108.3 58.6262H1117.45L1124.39 74.3439L1134.16 58.6262H1143.32C1145.52 58.6262 1147.63 57.7519 1149.19 56.1956C1150.75 54.6393 1151.62 52.5285 1151.62 50.3275V33.1991C1151.6 31.0154 1150.71 28.9301 1149.16 27.3953C1147.6 25.8605 1145.51 24.9998 1143.32 25Z" fill="white" stroke="#263238" stroke-linecap="round" stroke-linejoin="round"/>
<path d="M1124.42 37.614C1124.39 37.3697 1124.42 37.1231 1124.5 36.8902C1124.58 36.6572 1124.7 36.4429 1124.87 36.2611C1125.03 36.0794 1125.23 35.9341 1125.46 35.8347C1125.68 35.7353 1125.92 35.684 1126.17 35.684C1126.41 35.684 1126.66 35.7353 1126.88 35.8347C1127.11 35.9341 1127.31 36.0794 1127.47 36.2611C1127.64 36.4429 1127.76 36.6572 1127.84 36.8902C1127.92 37.1231 1127.94 37.3697 1127.92 37.614C1127.94 37.8582 1127.92 38.1048 1127.84 38.3378C1127.76 38.5708 1127.64 38.785 1127.47 38.9668C1127.31 39.1485 1127.11 39.2938 1126.88 39.3932C1126.66 39.4926 1126.41 39.5439 1126.17 39.5439C1125.92 39.5439 1125.68 39.4926 1125.46 39.3932C1125.23 39.2938 1125.03 39.1485 1124.87 38.9668C1124.7 38.785 1124.58 38.5708 1124.5 38.3378C1124.42 38.1048 1124.39 37.8582 1124.42 37.614ZM1127.92 45.7301C1127.87 46.3705 1127.71 46.9961 1127.42 47.5724L1126.33 50.5765H1124.67L1125.53 47.257C1125.22 47.1268 1124.96 46.9065 1124.78 46.6252C1124.6 46.3438 1124.51 46.0145 1124.52 45.6803C1124.52 45.2203 1124.7 44.7791 1125.03 44.4538C1125.35 44.1286 1125.79 43.9459 1126.25 43.9459C1126.71 43.9459 1127.15 44.1286 1127.48 44.4538C1127.8 44.7791 1127.99 45.2203 1127.99 45.6803L1127.92 45.7301Z" fill="#263238"/>
</g>
</g>
<g opacity="0.15">
<path d="M112.319 101H77.2987C75.0977 101 72.9869 101.874 71.4306 103.431C69.8743 104.987 69 107.098 69 109.299V126.328C69 128.528 69.8743 130.639 71.4306 132.196C72.9869 133.752 75.0977 134.626 77.2987 134.626H86.4604L93.3814 150.344L103.157 134.626H112.319C114.52 134.626 116.631 133.752 118.187 132.196C119.743 130.639 120.618 128.528 120.618 126.328V109.182C120.587 107.002 119.699 104.921 118.146 103.389C116.593 101.858 114.5 101 112.319 101Z" fill="white" stroke="#263238" stroke-linecap="round" stroke-linejoin="round"/>
<path d="M90.2617 113.647H100.087V115.821H90.2617V113.647ZM90.2617 118.809H100.087V120.95H90.2617V118.809Z" fill="#263238"/>
</g>
<g opacity="0.4">
<path d="M983.951 682H956.506C954.781 682 953.126 682.685 951.906 683.906C950.685 685.126 950 686.781 950 688.506V701.858C950 703.583 950.685 705.238 951.906 706.458C953.126 707.679 954.781 708.364 956.506 708.364H963.677L969.116 720.687L976.781 708.364H983.951C985.676 708.364 987.331 707.679 988.551 706.458C989.772 705.238 990.457 703.583 990.457 701.858V688.415C990.433 686.706 989.737 685.074 988.519 683.873C987.302 682.673 985.661 682 983.951 682Z" fill="white" stroke="#263238" stroke-linecap="round" stroke-linejoin="round"/>
<path d="M966.41 689.638C966.41 689.293 966.547 688.962 966.791 688.718C967.035 688.474 967.366 688.337 967.711 688.337C968.041 688.336 968.359 688.461 968.601 688.686C968.842 688.91 968.99 689.218 969.013 689.547C969.013 689.892 968.876 690.223 968.632 690.468C968.388 690.712 968.057 690.849 967.711 690.849C967.382 690.849 967.064 690.725 966.822 690.5C966.58 690.276 966.433 689.968 966.41 689.638ZM966.696 692.358H968.792V701.285H966.696V692.358Z" fill="#263238"/>
<path d="M973.827 691.89V692.423H976.273V694.102H973.892V701.285H971.797V694.102H970.326V692.423H971.797V691.864C971.764 691.441 971.824 691.016 971.974 690.619C972.124 690.222 972.359 689.863 972.664 689.567C972.968 689.271 973.334 689.046 973.735 688.908C974.136 688.77 974.563 688.721 974.985 688.767C975.651 688.739 976.312 688.907 976.885 689.248L976.299 690.823C975.958 690.588 975.555 690.461 975.141 690.458C974.282 690.458 973.827 690.94 973.827 691.89Z" fill="#263238"/>
<g opacity="0.7">
<path d="M1138.99 721H1111.51C1109.78 721 1108.13 721.685 1106.91 722.906C1105.69 724.126 1105 725.781 1105 727.506V740.871C1105 742.596 1105.69 744.251 1106.91 745.471C1108.13 746.692 1109.78 747.377 1111.51 747.377H1118.69L1124.12 759.7L1131.78 747.377H1138.96C1140.69 747.377 1142.34 746.692 1143.56 745.471C1144.78 744.251 1145.47 742.596 1145.47 740.871V727.454C1145.46 725.742 1144.77 724.105 1143.56 722.896C1142.34 721.688 1140.7 721.007 1138.99 721Z" fill="white" stroke="#263238" stroke-linecap="round" stroke-linejoin="round"/>
<path d="M1117.31 736.498H1110.3C1110.43 737.151 1110.8 737.73 1111.34 738.126C1111.87 738.523 1112.54 738.707 1113.2 738.646C1113.65 738.662 1114.1 738.584 1114.51 738.415C1114.93 738.247 1115.31 737.993 1115.62 737.67L1116.74 738.971C1116.06 739.643 1115.21 740.108 1114.28 740.312C1113.35 740.516 1112.38 740.45 1111.48 740.122C1110.59 739.794 1109.81 739.218 1109.23 738.461C1108.65 737.704 1108.3 736.797 1108.21 735.848C1108.2 735.24 1108.3 734.634 1108.53 734.069C1108.75 733.504 1109.09 732.992 1109.53 732.563C1109.96 732.135 1110.47 731.8 1111.04 731.579C1111.61 731.359 1112.21 731.257 1112.82 731.28C1113.43 731.255 1114.04 731.359 1114.6 731.583C1115.17 731.808 1115.68 732.149 1116.11 732.585C1116.53 733.02 1116.86 733.541 1117.07 734.112C1117.29 734.683 1117.38 735.292 1117.34 735.9C1117.34 736.056 1117.32 736.303 1117.31 736.498ZM1110.28 735.119H1115.41C1115.35 734.503 1115.05 733.933 1114.58 733.529C1114.11 733.125 1113.51 732.916 1112.89 732.946C1112.26 732.905 1111.64 733.108 1111.15 733.512C1110.67 733.917 1110.36 734.492 1110.28 735.119Z" fill="#263238"/>
<path d="M1119.31 727.897H1121.4V740.298H1119.31V727.897Z" fill="#263238"/>
<path d="M1123.22 739.413L1124.01 737.826C1124.95 738.399 1126.02 738.705 1127.12 738.711C1128.42 738.711 1129 738.346 1129 737.722C1129 736.017 1123.48 737.618 1123.48 734.065C1123.48 732.373 1125 731.267 1127.38 731.267C1128.54 731.249 1129.69 731.512 1130.73 732.035L1129.92 733.623C1129.13 733.164 1128.23 732.934 1127.32 732.959C1126.02 732.959 1125.44 733.375 1125.44 733.961C1125.44 735.77 1130.96 734.156 1130.96 737.657C1130.96 739.322 1129.43 740.415 1126.91 740.415C1125.61 740.43 1124.33 740.083 1123.22 739.413Z" fill="#263238"/>
<path d="M1141.14 736.498H1134.12C1134.26 737.151 1134.63 737.73 1135.16 738.126C1135.7 738.523 1136.36 738.707 1137.03 738.646C1137.47 738.662 1137.92 738.584 1138.34 738.415C1138.76 738.247 1139.13 737.993 1139.45 737.67L1140.56 738.971C1139.89 739.643 1139.04 740.108 1138.1 740.312C1137.17 740.516 1136.2 740.45 1135.31 740.122C1134.41 739.794 1133.63 739.218 1133.05 738.461C1132.47 737.704 1132.12 736.797 1132.04 735.848C1132.02 735.24 1132.13 734.634 1132.36 734.069C1132.58 733.504 1132.92 732.992 1133.35 732.563C1133.78 732.135 1134.3 731.8 1134.87 731.579C1135.43 731.359 1136.04 731.257 1136.65 731.28C1137.26 731.255 1137.86 731.359 1138.43 731.583C1139 731.808 1139.51 732.149 1139.93 732.585C1140.36 733.02 1140.69 733.541 1140.9 734.112C1141.11 734.683 1141.2 735.292 1141.16 735.9C1141.16 736.056 1141.15 736.303 1141.14 736.498ZM1134.11 735.119H1139.17C1139.11 734.503 1138.81 733.933 1138.34 733.529C1137.87 733.125 1137.27 732.916 1136.65 732.946C1136.03 732.922 1135.42 733.133 1134.95 733.536C1134.48 733.938 1134.18 734.504 1134.11 735.119Z" fill="#263238"/>
</g>
<g opacity="0.3">
<path d="M1062.91 770H1035.51C1033.78 770 1032.13 770.686 1030.91 771.906C1029.69 773.126 1029 774.781 1029 776.507V789.858C1029 791.584 1029.69 793.238 1030.91 794.459C1032.13 795.679 1033.78 796.364 1035.51 796.364H1042.69L1048.12 808.688L1055.78 796.364H1062.96C1064.69 796.364 1066.34 795.679 1067.56 794.459C1068.78 793.238 1069.47 791.584 1069.47 789.858V776.455C1069.46 775.6 1069.29 774.755 1068.95 773.969C1068.62 773.182 1068.14 772.468 1067.53 771.869C1066.92 771.27 1066.2 770.796 1065.41 770.476C1064.61 770.155 1063.77 769.993 1062.91 770Z" fill="white" stroke="#263238" stroke-linecap="round" stroke-linejoin="round"/>
<path d="M1042.73 775.544H1046.72V777.222H1044.81V789.52H1046.72V791.198H1042.73V775.544Z" fill="#263238"/>
<path d="M1051.9 791.198V789.52H1053.79V777.222H1051.9V775.544H1055.87V791.159L1051.9 791.198Z" fill="#263238"/>
</g>
</g>
<g opacity="0.3">
<path d="M9.84529 709.523H47.1547C49.4854 709.523 51.7219 708.604 53.3782 706.964C55.0345 705.324 55.9767 703.097 56 700.766V682.598C56 680.252 55.0681 678.003 53.4093 676.344C51.7505 674.685 49.5006 673.753 47.1547 673.753H37.4072L39.5301 657L19.5928 673.753H9.84529C7.49937 673.753 5.24954 674.685 3.59073 676.344C1.93192 678.003 1 680.252 1 682.598V700.766C1.02331 703.097 1.96551 705.324 3.6218 706.964C5.27809 708.604 7.51462 709.523 9.84529 709.523Z" fill="white" stroke="#263238" stroke-linecap="round" stroke-linejoin="round"/>
<path d="M20.9023 698.025C20.9023 697.555 21.0887 697.105 21.4205 696.774C21.7522 696.442 22.2022 696.256 22.6714 696.256C23.1406 696.256 23.5906 696.442 23.9223 696.774C24.2541 697.105 24.4405 697.555 24.4405 698.025C24.4405 698.494 24.2541 698.944 23.9223 699.275C23.5906 699.607 23.1406 699.794 22.6714 699.794C22.2022 699.794 21.7522 699.607 21.4205 699.275C21.0887 698.944 20.9023 698.494 20.9023 698.025ZM21.0616 683.713H24.4228L23.8567 694.327H21.61L21.0616 683.713Z" fill="#263238"/>
<path d="M27.3594 687.781H37.8322V690.064H27.3594V687.781ZM27.3594 693.283H37.8322V695.565H27.3594V693.283Z" fill="#263238"/>
</g>
<g opacity="0.5">
<path d="M105.926 766H143.574C145.941 766 148.211 765.06 149.885 763.386C151.559 761.712 152.499 759.442 152.499 757.074V738.831C152.499 736.463 151.559 734.193 149.885 732.519C148.211 730.845 145.941 729.905 143.574 729.905H133.738L130.864 713L115.762 729.905H105.926C103.558 729.905 101.288 730.845 99.6142 732.519C97.9404 734.193 97 736.463 97 738.831V757.146C97.0188 759.501 97.9675 761.753 99.6393 763.411C101.311 765.07 103.571 766 105.926 766Z" fill="white" stroke="#263238" stroke-linecap="round" stroke-linejoin="round"/>
<path d="M119.154 744.221L111.246 747.256L119.154 750.202V752.612L108.586 748.506V746.024L119.154 741.919V744.221Z" fill="#263238"/>
<path d="M127.508 735.885H130.061L122.492 757.503H119.939L127.508 735.885Z" fill="#263238"/>
<path d="M141.181 745.935V748.417L130.613 752.523V750.13L138.521 747.185L130.613 744.222V741.901L141.181 745.935Z" fill="#263238"/>
</g>
<defs>
<clipPath id="clip0_493_1251">
<rect width="261" height="190" fill="white" transform="translate(452 671)"/>
</clipPath>
</defs>
</svg>
