<svg width="80" height="80" viewBox="0 0 80 80" fill="none" xmlns="http://www.w3.org/2000/svg">
<g clip-path="url(#clip0_433_1649)">
<path fill-rule="evenodd" clip-rule="evenodd" d="M13.665 69.9825C15.13 71.165 17.28 70.945 18.46 69.4775C19.6475 68.015 19.425 65.865 17.96 64.6775C16.4975 63.4925 14.35 63.72 13.16 65.1825C12.035 66.57 12.18 68.5725 13.4475 69.7925L12.7825 69.2075C4.93 61.905 0 51.4925 0 39.945C0 17.92 17.92 0 39.95 0C51.15 0 61.275 4.6425 68.5375 12.09C70.1875 9.845 71.6175 7.335 72.7875 4.5525C77.8775 19.8475 80.87 32.7025 79.775 42.8275C78.295 63.5125 61.005 79.9025 39.95 79.9025C30.17 79.9025 21.21 76.3625 14.26 70.51L13.665 69.9825ZM72.615 57.5275C82.64 44.1875 77.0525 22.615 72.4025 8.8275C68.26 17.46 58.0575 24.0625 49.2475 26.1525C40.99 28.1225 33.6825 26.5075 26.04 29.4475C8.615 36.1475 8.89 56.9275 18.49 61.5975C18.495 61.5975 19.065 61.9075 19.0575 61.8975C19.0575 61.8925 33.1675 59.0925 40.9675 56.2125C52.3675 52.0025 64.8825 41.625 69 29.57C66.8075 42.1075 56.045 54.17 45.2325 59.71C39.4775 62.665 35.0025 63.3225 25.5325 66.6C24.3725 66.995 23.4625 67.385 23.4625 67.385C25.8625 66.985 28.255 66.855 28.255 66.855C41.7375 66.2175 62.7725 70.645 72.6175 57.53L72.615 57.5275Z" fill="#70AD51"/>
</g>
<defs>
<clipPath id="clip0_433_1649">
<rect width="80" height="80" fill="white"/>
</clipPath>
</defs>
</svg>
