<svg width="80" height="80" viewBox="0 0 80 80" fill="none" xmlns="http://www.w3.org/2000/svg">
<g clip-path="url(#clip0_433_1660)">
<path d="M10.3762 73.5609L7.90326 7.66726C7.82159 5.49106 9.49023 3.64674 11.6637 3.5109L67.7109 0.00795249C69.9233 -0.13032 71.8288 1.55106 71.9671 3.76343C71.9723 3.84678 71.9749 3.93028 71.9749 4.01379V75.8166C71.9749 78.0333 70.1779 79.8302 67.9613 79.8302C67.9012 79.8302 67.8412 79.8289 67.7812 79.8262L14.207 77.42C12.1205 77.3263 10.4546 75.6481 10.3762 73.5609Z" fill="#FF4785"/>
<mask id="mask0_433_1660" style="mask-type:luminance" maskUnits="userSpaceOnUse" x="7" y="0" width="65" height="80">
<path d="M10.3762 73.5609L7.90326 7.66726C7.82159 5.49106 9.49023 3.64674 11.6637 3.5109L67.7109 0.00795249C69.9233 -0.13032 71.8288 1.55106 71.9671 3.76343C71.9723 3.84678 71.9749 3.93028 71.9749 4.01379V75.8166C71.9749 78.0333 70.1779 79.8302 67.9613 79.8302C67.9012 79.8302 67.8412 79.8289 67.7812 79.8262L14.207 77.42C12.1205 77.3263 10.4546 75.6481 10.3762 73.5609Z" fill="white"/>
</mask>
<g mask="url(#mask0_433_1660)">
<path d="M55.2136 9.81241L55.5965 0.604761L63.2934 0L63.625 9.49553C63.6365 9.82599 63.378 10.1032 63.0475 10.1148C62.906 10.1197 62.7674 10.0744 62.6561 9.98674L59.6879 7.6485L56.1737 10.3143C55.9102 10.5141 55.5347 10.4626 55.3348 10.1991C55.2507 10.0882 55.2078 9.95148 55.2136 9.81241ZM45.3699 30.0891C45.3699 31.6507 55.8883 30.9022 57.3003 29.8054C57.3003 19.1716 51.5945 13.5837 41.1462 13.5837C30.6978 13.5837 24.8438 19.2585 24.8438 27.7708C24.8438 42.5962 44.8512 42.88 44.8512 50.9666C44.8512 53.2365 43.7397 54.5843 41.2944 54.5843C38.108 54.5843 36.8483 52.957 36.9965 47.424C36.9965 46.2237 24.8438 45.8495 24.4733 47.424C23.5298 60.8323 31.8835 64.6998 41.4426 64.6998C50.7053 64.6998 57.9672 59.7625 57.9672 50.8247C57.9672 34.9352 37.6634 35.3608 37.6634 27.487C37.6634 24.2949 40.0346 23.8693 41.4426 23.8693C42.9246 23.8693 45.5922 24.1306 45.3699 30.0891Z" fill="white"/>
</g>
</g>
<defs>
<clipPath id="clip0_433_1660">
<rect width="80" height="80" fill="white"/>
</clipPath>
</defs>
</svg>
