<svg width="80" height="80" viewBox="0 0 80 80" fill="none" xmlns="http://www.w3.org/2000/svg">
<g clip-path="url(#clip0_433_1718)">
<path d="M0 40V0H80V80H0" fill="#007ACC"/>
<path d="M17.5391 40.14V43.4H27.9391V73H35.3191V43.4H45.7191V40.2C45.7191 38.4 45.7191 36.94 45.6391 36.9C45.6391 36.84 39.2991 36.82 31.5991 36.82L17.5991 36.88V40.16L17.5391 40.14ZM64.2791 36.8C66.3191 37.28 67.8791 38.2 69.2791 39.66C70.0191 40.46 71.1191 41.86 71.1991 42.22C71.1991 42.34 67.7391 44.68 65.6391 45.98C65.5591 46.04 65.2391 45.7 64.9191 45.18C63.8791 43.7 62.8191 43.06 61.1591 42.94C58.7591 42.78 57.1591 44.04 57.1591 46.14C57.1591 46.78 57.2791 47.14 57.5191 47.66C58.0591 48.76 59.0591 49.42 62.1591 50.78C67.8791 53.24 70.3591 54.86 71.8591 57.18C73.5591 59.78 73.9391 63.86 72.7991 66.92C71.5191 70.26 68.3991 72.52 63.9391 73.26C62.5391 73.5 59.3391 73.46 57.8391 73.2C54.6391 72.6 51.5791 71 49.6991 68.94C48.9591 68.14 47.5391 66 47.6191 65.86L48.3791 65.38L51.3791 63.64L53.6391 62.32L54.1591 63.02C54.8191 64.06 56.2991 65.46 57.1591 65.94C59.7591 67.28 63.2391 67.1 64.9591 65.54C65.6991 64.86 66.0191 64.14 66.0191 63.14C66.0191 62.22 65.8791 61.8 65.4191 61.1C64.7791 60.22 63.4991 59.5 59.8991 57.9C55.7591 56.14 53.9991 55.02 52.3591 53.3C51.4191 52.26 50.5591 50.64 50.1591 49.3C49.8591 48.14 49.7591 45.3 50.0391 44.16C50.8991 40.16 53.9191 37.36 58.2391 36.56C59.6391 36.28 62.9391 36.4 64.3191 36.76L64.2791 36.8Z" fill="white"/>
</g>
<defs>
<clipPath id="clip0_433_1718">
<rect width="80" height="80" fill="white"/>
</clipPath>
</defs>
</svg>
