<svg width="80" height="80" viewBox="0 0 80 80" fill="none" xmlns="http://www.w3.org/2000/svg">
<mask id="mask0_433_1699" style="mask-type:luminance" maskUnits="userSpaceOnUse" x="0" y="0" width="80" height="80">
<path d="M56.5086 79.2516C57.7637 79.7406 59.195 79.7092 60.4619 79.0997L76.8685 71.2052C78.5924 70.3756 79.6887 68.6306 79.6887 66.7165V13.1866C79.6887 11.2724 78.5924 9.52764 76.8685 8.69807L60.4619 0.803288C58.7994 0.00330564 56.8535 0.199252 55.3946 1.26006C55.186 1.4116 54.9874 1.58079 54.8012 1.76725L23.3927 30.4218L9.71181 20.0369C8.43826 19.0701 6.6569 19.1493 5.47409 20.2253L1.08618 24.2167C-0.360633 25.5328 -0.362292 27.809 1.0826 29.1272L12.9471 39.9514L1.0826 50.7756C-0.362292 52.0939 -0.360633 54.37 1.08618 55.6861L5.47409 59.6774C6.6569 60.7535 8.43826 60.8326 9.71181 59.8661L23.3927 49.481L54.8012 78.1356C55.2981 78.6328 55.8814 79.0072 56.5086 79.2516ZM59.7787 21.8612L35.9468 39.9514L59.7787 58.0416V21.8612Z" fill="white"/>
</mask>
<g mask="url(#mask0_433_1699)">
<path d="M76.9171 8.71044L60.4978 0.804787C58.5974 -0.110289 56.326 0.27571 54.8343 1.76726L1.08326 50.7757C-0.362513 52.094 -0.36085 54.3701 1.08684 55.6862L5.4774 59.6775C6.66096 60.7536 8.44341 60.8327 9.71771 59.8661L74.4465 10.7614C76.618 9.11399 79.737 10.6628 79.737 13.3885V13.1979C79.737 11.2846 78.641 9.54045 76.9171 8.71044Z" fill="#0065A9"/>
</g>
<mask id="mask1_433_1699" style="mask-type:luminance" maskUnits="userSpaceOnUse" x="0" y="0" width="80" height="80">
<path d="M56.5086 79.2516C57.7637 79.7406 59.195 79.7092 60.4619 79.0997L76.8685 71.2052C78.5924 70.3756 79.6887 68.6306 79.6887 66.7165V13.1866C79.6887 11.2724 78.5924 9.52764 76.8685 8.69807L60.4619 0.803288C58.7994 0.00330564 56.8535 0.199252 55.3946 1.26006C55.186 1.4116 54.9874 1.58079 54.8012 1.76725L23.3927 30.4218L9.71181 20.0369C8.43826 19.0701 6.6569 19.1493 5.47409 20.2253L1.08618 24.2167C-0.360633 25.5328 -0.362292 27.809 1.0826 29.1272L12.9471 39.9514L1.0826 50.7756C-0.362292 52.0939 -0.360633 54.37 1.08618 55.6861L5.47409 59.6774C6.6569 60.7535 8.43826 60.8326 9.71181 59.8661L23.3927 49.481L54.8012 78.1356C55.2981 78.6328 55.8814 79.0072 56.5086 79.2516ZM59.7787 21.8612L35.9468 39.9514L59.7787 58.0416V21.8612Z" fill="white"/>
</mask>
<g mask="url(#mask1_433_1699)">
<path d="M76.9171 71.1925L60.4978 79.0982C58.5974 80.0131 56.326 79.6271 54.8343 78.1357L1.08326 29.1272C-0.362513 27.809 -0.36085 25.5328 1.08684 24.2168L5.4774 20.2253C6.66096 19.1494 8.44341 19.0702 9.71771 20.0369L74.4465 69.1415C76.618 70.7888 79.737 69.2402 79.737 66.5143V66.7051C79.737 68.6182 78.641 70.3624 76.9171 71.1925Z" fill="#007ACC"/>
</g>
<mask id="mask2_433_1699" style="mask-type:luminance" maskUnits="userSpaceOnUse" x="0" y="0" width="80" height="80">
<path d="M56.5086 79.2516C57.7637 79.7406 59.195 79.7092 60.4619 79.0997L76.8685 71.2052C78.5924 70.3756 79.6887 68.6306 79.6887 66.7165V13.1866C79.6887 11.2724 78.5924 9.52764 76.8685 8.69807L60.4619 0.803288C58.7994 0.00330564 56.8535 0.199252 55.3946 1.26006C55.186 1.4116 54.9874 1.58079 54.8012 1.76725L23.3927 30.4218L9.71181 20.0369C8.43826 19.0701 6.6569 19.1493 5.47409 20.2253L1.08618 24.2167C-0.360633 25.5328 -0.362292 27.809 1.0826 29.1272L12.9471 39.9514L1.0826 50.7756C-0.362292 52.0939 -0.360633 54.37 1.08618 55.6861L5.47409 59.6774C6.6569 60.7535 8.43826 60.8326 9.71181 59.8661L23.3927 49.481L54.8012 78.1356C55.2981 78.6328 55.8814 79.0072 56.5086 79.2516ZM59.7787 21.8612L35.9468 39.9514L59.7787 58.0416V21.8612Z" fill="white"/>
</mask>
<g mask="url(#mask2_433_1699)">
<path d="M60.4454 79.1046C58.5444 80.0188 56.2729 79.6325 54.7812 78.1409C56.6191 79.9787 59.7618 78.6769 59.7618 76.0777V3.83538C59.7618 1.23615 56.6191 -0.0655623 54.7812 1.77238C56.2729 0.280692 58.5444 -0.105853 60.4454 0.808416L76.8619 8.70321C78.587 9.53278 79.684 11.2776 79.684 13.1917V66.7217C79.684 68.6358 78.587 70.3806 76.8619 71.2101L60.4454 79.1046Z" fill="#1F9CF0"/>
</g>
<mask id="mask3_433_1699" style="mask-type:luminance" maskUnits="userSpaceOnUse" x="0" y="0" width="80" height="80">
<path d="M56.5086 79.2516C57.7637 79.7406 59.195 79.7092 60.4619 79.0997L76.8685 71.2052C78.5924 70.3756 79.6887 68.6306 79.6887 66.7165V13.1866C79.6887 11.2724 78.5924 9.52764 76.8685 8.69807L60.4619 0.803288C58.7994 0.00330564 56.8535 0.199252 55.3946 1.26006C55.186 1.4116 54.9874 1.58079 54.8012 1.76725L23.3927 30.4218L9.71181 20.0369C8.43826 19.0701 6.6569 19.1493 5.47409 20.2253L1.08618 24.2167C-0.360633 25.5328 -0.362292 27.809 1.0826 29.1272L12.9471 39.9514L1.0826 50.7756C-0.362292 52.0939 -0.360633 54.37 1.08618 55.6861L5.47409 59.6774C6.6569 60.7535 8.43826 60.8326 9.71181 59.8661L23.3927 49.481L54.8012 78.1356C55.2981 78.6328 55.8814 79.0072 56.5086 79.2516ZM59.7787 21.8612L35.9468 39.9514L59.7787 58.0416V21.8612Z" fill="white"/>
</mask>
<g mask="url(#mask3_433_1699)">
<path d="M56.5087 79.2516C57.7638 79.7404 59.1951 79.7092 60.4617 79.0997L76.8682 71.205C78.5925 70.3754 79.6888 68.6306 79.6888 66.7166V13.1866C79.6888 11.2724 78.5924 9.52763 76.8686 8.69806L60.4617 0.803289C58.7995 0.00330532 56.8536 0.199251 55.3943 1.26006C55.1861 1.41159 54.9875 1.58079 54.801 1.76725L23.3927 30.4218L9.7118 20.0369C8.43827 19.0701 6.65689 19.1494 5.47407 20.2253L1.08618 24.2167C-0.360633 25.5328 -0.362292 27.809 1.0826 29.1272L12.9471 39.9514L1.0826 50.7757C-0.362292 52.094 -0.360633 54.3701 1.08618 55.6862L5.47407 59.6775C6.65689 60.7536 8.43827 60.8327 9.7118 59.8661L23.3927 49.4811L54.801 78.1357C55.2978 78.6328 55.8815 79.0073 56.5087 79.2516ZM59.7788 21.8612L35.9468 39.9514L59.7788 58.0417V21.8612Z" fill="url(#paint0_linear_433_1699)" fill-opacity="0.25"/>
</g>
<defs>
<linearGradient id="paint0_linear_433_1699" x1="3984.44" y1="0.312469" x2="3984.44" y2="7928.09" gradientUnits="userSpaceOnUse">
<stop stop-color="white"/>
<stop offset="1" stop-color="white" stop-opacity="0"/>
</linearGradient>
</defs>
</svg>
